<?xml version="1.0" encoding="UTF-8" standalone="no"?>
<!DOCTYPE svg PUBLIC "-//W3C//DTD SVG 1.1//EN"
 "http://www.w3.org/Graphics/SVG/1.1/DTD/svg11.dtd">
<!-- Generated by graphviz version 8.1.0 (20230707.0739)
 -->
<!-- Pages: 1 -->
<svg width="1830pt" height="1444pt"
 viewBox="0.00 0.00 1830.00 1444.24" xmlns="http://www.w3.org/2000/svg" xmlns:xlink="http://www.w3.org/1999/xlink">
<g id="graph0" class="graph" transform="scale(1 1) rotate(0) translate(4 1440.24)">
<polygon fill="white" stroke="none" points="-4,4 -4,-1440.24 1826,-1440.24 1826,4 -4,4"/>
<!-- z_score -->
<g id="node1" class="node">
<title>z_score</title>
<polygon fill="lightgray" stroke="black" points="363.5,-900.25 320.5,-900.25 320.5,-881.75 363.5,-881.75 363.5,-900.25"/>
<text text-anchor="middle" x="342" y="-887.7" font-family="Times,serif" font-size="9.00">z_score</text>
</g>
<!-- Sell -->
<g id="node20" class="node">
<title>Sell</title>
<ellipse fill="lightblue" stroke="black" cx="1108" cy="-616" rx="20.86" ry="20.86"/>
<text text-anchor="middle" x="1108" y="-612.7" font-family="Times,serif" font-size="9.00">Sell</text>
</g>
<!-- z_score&#45;&gt;Sell -->
<g id="edge1" class="edge">
<title>z_score&#45;&gt;Sell</title>
<path fill="none" stroke="green" stroke-width="0.61" d="M363.69,-882.27C472.14,-843.62 955.25,-671.44 1079.03,-627.32"/>
<polygon fill="green" stroke="green" stroke-width="0.61" points="1080.04,-630.68 1088.28,-624.03 1077.69,-624.09 1080.04,-630.68"/>
</g>
<!-- Hold -->
<g id="node21" class="node">
<title>Hold</title>
<ellipse fill="lightblue" stroke="black" cx="978" cy="-81" rx="24.04" ry="24.04"/>
<text text-anchor="middle" x="978" y="-77.7" font-family="Times,serif" font-size="9.00">Hold</text>
</g>
<!-- z_score&#45;&gt;Hold -->
<g id="edge2" class="edge">
<title>z_score&#45;&gt;Hold</title>
<path fill="none" stroke="green" stroke-width="0.48" d="M348.71,-881.47C408.92,-804.98 856.18,-236.76 957.59,-107.93"/>
<polygon fill="green" stroke="green" stroke-width="0.48" points="960.07,-110.44 963.5,-100.42 954.57,-106.11 960.07,-110.44"/>
</g>
<!-- Buy -->
<g id="node22" class="node">
<title>Buy</title>
<ellipse fill="lightblue" stroke="black" cx="934" cy="-616" rx="21.92" ry="21.92"/>
<text text-anchor="middle" x="934" y="-612.7" font-family="Times,serif" font-size="9.00">Buy</text>
</g>
<!-- z_score&#45;&gt;Buy -->
<g id="edge3" class="edge">
<title>z_score&#45;&gt;Buy</title>
<path fill="none" stroke="red" stroke-width="0.72" d="M354.39,-881.43C361.21,-876.88 369.91,-871.34 378,-866.96 571.93,-762.04 818.46,-662.34 903.53,-628.86"/>
<polygon fill="red" stroke="red" stroke-width="0.72" points="904.51,-631.84 912.54,-624.93 901.95,-625.32 904.51,-631.84"/>
</g>
<!-- z_score_MA_50 -->
<g id="node2" class="node">
<title>z_score_MA_50</title>
<polygon fill="lightgray" stroke="black" points="600,-900.25 524,-900.25 524,-881.75 600,-881.75 600,-900.25"/>
<text text-anchor="middle" x="562" y="-887.7" font-family="Times,serif" font-size="9.00">z_score_MA_50</text>
</g>
<!-- z_score_MA_50&#45;&gt;Sell -->
<g id="edge4" class="edge">
<title>z_score_MA_50&#45;&gt;Sell</title>
<path fill="none" stroke="red" stroke-width="0.24" d="M579.24,-881.38C657.92,-842.04 983.21,-679.4 1080.43,-630.78"/>
<polygon fill="red" stroke="red" stroke-width="0.24" points="1081.99,-633.92 1089.37,-626.32 1078.86,-627.66 1081.99,-633.92"/>
</g>
<!-- z_score_MA_50&#45;&gt;Hold -->
<g id="edge5" class="edge">
<title>z_score_MA_50&#45;&gt;Hold</title>
<path fill="none" stroke="red" stroke-width="0.42" d="M566.39,-881.47C605.44,-805.63 893.39,-246.34 962.92,-111.29"/>
<polygon fill="red" stroke="red" stroke-width="0.42" points="965.9,-113.16 967.36,-102.66 959.67,-109.95 965.9,-113.16"/>
</g>
<!-- z_score_MA_50&#45;&gt;Buy -->
<g id="edge6" class="edge">
<title>z_score_MA_50&#45;&gt;Buy</title>
<path fill="none" stroke="red" stroke-width="0.69" d="M573.54,-881.53C624.93,-843.81 833.69,-690.62 907.77,-636.25"/>
<polygon fill="red" stroke="red" stroke-width="0.69" points="910.52,-638.57 916.51,-629.83 906.38,-632.93 910.52,-638.57"/>
</g>
<!-- z_score_MA_25 -->
<g id="node3" class="node">
<title>z_score_MA_25</title>
<polygon fill="lightgray" stroke="black" points="302,-900.25 226,-900.25 226,-881.75 302,-881.75 302,-900.25"/>
<text text-anchor="middle" x="264" y="-887.7" font-family="Times,serif" font-size="9.00">z_score_MA_25</text>
</g>
<!-- z_score_MA_25&#45;&gt;Sell -->
<g id="edge7" class="edge">
<title>z_score_MA_25&#45;&gt;Sell</title>
<path fill="none" stroke="green" stroke-width="0.3" d="M280.25,-881.27C289.18,-876.67 300.53,-871.14 311,-866.96 602.92,-750.41 971.88,-652.03 1078.14,-624.6"/>
<polygon fill="green" stroke="green" stroke-width="0.3" points="1078.78,-628.05 1087.59,-622.17 1077.03,-621.27 1078.78,-628.05"/>
</g>
<!-- z_score_MA_25&#45;&gt;Hold -->
<g id="edge8" class="edge">
<title>z_score_MA_25&#45;&gt;Hold</title>
<path fill="none" stroke="red" stroke-width="0.43" stroke-dasharray="1,5" d="M271.37,-881.4C315.84,-829.53 553.22,-553.09 751,-331.14 824.97,-248.13 914.19,-151.1 955.27,-106.58"/>
<polygon fill="red" stroke="red" stroke-width="0.43" points="957.69,-109.12 961.9,-99.4 952.55,-104.37 957.69,-109.12"/>
</g>
<!-- z_score_MA_25&#45;&gt;Buy -->
<g id="edge9" class="edge">
<title>z_score_MA_25&#45;&gt;Buy</title>
<path fill="none" stroke="red" stroke-width="0.13" d="M280.83,-881.37C289.72,-876.91 300.87,-871.47 311,-866.96 535.98,-766.84 814,-661.71 904.23,-628.04"/>
<polygon fill="red" stroke="red" stroke-width="0.13" points="905.18,-631.42 913.33,-624.65 902.74,-624.86 905.18,-631.42"/>
</g>
<!-- 392 -->
<g id="node25" class="node">
<title>392</title>
<ellipse fill="white" stroke="black" cx="944" cy="-352" rx="20.86" ry="20.86"/>
<text text-anchor="middle" x="944" y="-348.7" font-family="Times,serif" font-size="9.00">392</text>
</g>
<!-- z_score_MA_25&#45;&gt;392 -->
<g id="edge65" class="edge">
<title>z_score_MA_25&#45;&gt;392</title>
<path fill="none" stroke="green" stroke-width="0.25" d="M274.96,-881.35C351.79,-820.68 809.87,-458.92 920.14,-371.84"/>
<polygon fill="green" stroke="green" stroke-width="0.25" points="922.07,-374.78 927.75,-365.83 917.73,-369.28 922.07,-374.78"/>
</g>
<!-- z_score_MA_10 -->
<g id="node4" class="node">
<title>z_score_MA_10</title>
<polygon fill="lightgray" stroke="black" points="104,-900.25 28,-900.25 28,-881.75 104,-881.75 104,-900.25"/>
<text text-anchor="middle" x="66" y="-887.7" font-family="Times,serif" font-size="9.00">z_score_MA_10</text>
</g>
<!-- z_score_MA_10&#45;&gt;Sell -->
<g id="edge10" class="edge">
<title>z_score_MA_10&#45;&gt;Sell</title>
<path fill="none" stroke="red" stroke-width="0.34" d="M81.73,-881.25C90.69,-876.54 102.25,-870.9 113,-866.96 482.28,-731.75 954.71,-643.84 1077.67,-622.21"/>
<polygon fill="red" stroke="red" stroke-width="0.34" points="1077.96,-625.71 1087.2,-620.54 1076.75,-618.82 1077.96,-625.71"/>
</g>
<!-- z_score_MA_10&#45;&gt;Hold -->
<g id="edge11" class="edge">
<title>z_score_MA_10&#45;&gt;Hold</title>
<path fill="none" stroke="red" stroke-width="0.45" d="M65.63,-881.26C63.72,-823.68 60.65,-495.79 229,-331.14 440.36,-124.42 827.42,-89.18 943.93,-83.21"/>
<polygon fill="red" stroke="red" stroke-width="0.45" points="943.91,-86.71 953.73,-82.74 943.58,-79.72 943.91,-86.71"/>
</g>
<!-- z_score_MA_10&#45;&gt;Buy -->
<g id="edge12" class="edge">
<title>z_score_MA_10&#45;&gt;Buy</title>
<path fill="none" stroke="green" stroke-width="0.3" d="M81.81,-881.46C90.8,-876.81 102.35,-871.16 113,-866.96 413.4,-748.48 793.61,-651.45 903.18,-624.48"/>
<polygon fill="green" stroke="green" stroke-width="0.3" points="903.76,-627.94 912.64,-622.16 902.1,-621.14 903.76,-627.94"/>
</g>
<!-- 430 -->
<g id="node27" class="node">
<title>430</title>
<ellipse fill="white" stroke="black" cx="165" cy="-616" rx="20.86" ry="20.86"/>
<text text-anchor="middle" x="165" y="-612.7" font-family="Times,serif" font-size="9.00">430</text>
</g>
<!-- z_score_MA_10&#45;&gt;430 -->
<g id="edge68" class="edge">
<title>z_score_MA_10&#45;&gt;430</title>
<path fill="none" stroke="green" stroke-width="0.26" d="M69.07,-881.53C82.06,-845.72 132.78,-705.84 154.76,-645.24"/>
<polygon fill="green" stroke="green" stroke-width="0.26" points="158.03,-646.49 158.15,-635.89 151.45,-644.1 158.03,-646.49"/>
</g>
<!-- z_score_MA_5 -->
<g id="node5" class="node">
<title>z_score_MA_5</title>
<polygon fill="lightgray" stroke="black" points="689.75,-900.25 618.25,-900.25 618.25,-881.75 689.75,-881.75 689.75,-900.25"/>
<text text-anchor="middle" x="654" y="-887.7" font-family="Times,serif" font-size="9.00">z_score_MA_5</text>
</g>
<!-- z_score_MA_5&#45;&gt;Sell -->
<g id="edge13" class="edge">
<title>z_score_MA_5&#45;&gt;Sell</title>
<path fill="none" stroke="red" stroke-width="0.19" d="M668.34,-881.38C732.91,-842.55 997.22,-683.61 1081.82,-632.74"/>
<polygon fill="red" stroke="red" stroke-width="0.19" points="1083.57,-635.77 1090.34,-627.62 1079.96,-629.78 1083.57,-635.77"/>
</g>
<!-- z_score_MA_5&#45;&gt;Hold -->
<g id="edge14" class="edge">
<title>z_score_MA_5&#45;&gt;Hold</title>
<path fill="none" stroke="red" stroke-width="1.01" d="M657.42,-881.47C687.64,-806.11 909.3,-253.31 965.22,-113.87"/>
<polygon fill="red" stroke="red" stroke-width="1.01" points="968.77,-115.41 969.25,-104.83 962.28,-112.81 968.77,-115.41"/>
</g>
<!-- z_score_MA_5&#45;&gt;Buy -->
<g id="edge15" class="edge">
<title>z_score_MA_5&#45;&gt;Buy</title>
<path fill="none" stroke="red" stroke-width="0.17" stroke-dasharray="1,5" d="M662.69,-881.53C700.84,-844.33 854.2,-694.8 911.9,-638.55"/>
<polygon fill="red" stroke="red" stroke-width="0.17" points="914.05,-641.34 918.76,-631.85 909.16,-636.33 914.05,-641.34"/>
</g>
<!-- z_score_MA_50_current -->
<g id="node6" class="node">
<title>z_score_MA_50_current</title>
<polygon fill="lightgray" stroke="black" points="515.62,-1414.25 410.38,-1414.25 410.38,-1395.75 515.62,-1395.75 515.62,-1414.25"/>
<text text-anchor="middle" x="463" y="-1401.7" font-family="Times,serif" font-size="9.00">z_score_MA_50_current</text>
</g>
<!-- z_score_MA_50_current&#45;&gt;Sell -->
<g id="edge16" class="edge">
<title>z_score_MA_50_current&#45;&gt;Sell</title>
<path fill="none" stroke="green" stroke-width="0.27" stroke-dasharray="1,5" d="M515.96,-1397.32C689.56,-1372.25 1242.75,-1266.45 1462,-915.04 1553.99,-767.59 1237.75,-656.52 1137.51,-625.63"/>
<polygon fill="green" stroke="green" stroke-width="0.27" points="1138.55,-622.29 1127.97,-622.74 1136.52,-628.99 1138.55,-622.29"/>
</g>
<!-- z_score_MA_50_current&#45;&gt;Hold -->
<g id="edge17" class="edge">
<title>z_score_MA_50_current&#45;&gt;Hold</title>
<path fill="none" stroke="red" stroke-width="0.19" d="M444.56,-1395.3C358.45,-1353.24 0,-1161.95 0,-892 0,-892 0,-892 0,-615 0,-175.36 771.38,-96.22 944.01,-84.01"/>
<polygon fill="red" stroke="red" stroke-width="0.19" points="944.08,-87.52 953.82,-83.35 943.61,-80.53 944.08,-87.52"/>
</g>
<!-- z_score_MA_50_current&#45;&gt;Buy -->
<g id="edge18" class="edge">
<title>z_score_MA_50_current&#45;&gt;Buy</title>
<path fill="none" stroke="green" stroke-width="0.4" stroke-dasharray="1,5" d="M459.06,-1395.58C434.9,-1342.54 311.42,-1051.03 426,-866.96 535.52,-691.01 809.23,-635.33 902.38,-621.16"/>
<polygon fill="green" stroke="green" stroke-width="0.4" points="902.69,-624.66 912.08,-619.74 901.68,-617.73 902.69,-624.66"/>
</g>
<!-- 2178 -->
<g id="node23" class="node">
<title>2178</title>
<ellipse fill="white" stroke="black" cx="463" cy="-1173" rx="24.04" ry="24.04"/>
<text text-anchor="middle" x="463" y="-1169.7" font-family="Times,serif" font-size="9.00">2178</text>
</g>
<!-- z_score_MA_50_current&#45;&gt;2178 -->
<g id="edge72" class="edge">
<title>z_score_MA_50_current&#45;&gt;2178</title>
<path fill="none" stroke="green" stroke-width="0.21" d="M463,-1395.26C463,-1364.58 463,-1260.71 463,-1206.91"/>
<polygon fill="green" stroke="green" stroke-width="0.21" points="466.5,-1207.17 463,-1197.17 459.5,-1207.17 466.5,-1207.17"/>
</g>
<!-- 175 -->
<g id="node28" class="node">
<title>175</title>
<ellipse fill="white" stroke="black" cx="1530" cy="-1173" rx="20.86" ry="20.86"/>
<text text-anchor="middle" x="1530" y="-1169.7" font-family="Times,serif" font-size="9.00">175</text>
</g>
<!-- z_score_MA_50_current&#45;&gt;175 -->
<g id="edge61" class="edge">
<title>z_score_MA_50_current&#45;&gt;175</title>
<path fill="none" stroke="red" stroke-width="0.42" d="M516.05,-1400.53C671.89,-1388.85 1139.66,-1343.13 1495,-1197.04 1498.43,-1195.63 1501.88,-1193.87 1505.22,-1191.95"/>
<polygon fill="red" stroke="red" stroke-width="0.42" points="1507.05,-1194.93 1513.64,-1186.64 1503.32,-1189.01 1507.05,-1194.93"/>
</g>
<!-- z_score_MA_25_current -->
<g id="node7" class="node">
<title>z_score_MA_25_current</title>
<polygon fill="lightgray" stroke="black" points="935.62,-900.25 830.38,-900.25 830.38,-881.75 935.62,-881.75 935.62,-900.25"/>
<text text-anchor="middle" x="883" y="-887.7" font-family="Times,serif" font-size="9.00">z_score_MA_25_current</text>
</g>
<!-- z_score_MA_25_current&#45;&gt;Sell -->
<g id="edge19" class="edge">
<title>z_score_MA_25_current&#45;&gt;Sell</title>
<path fill="none" stroke="green" stroke-width="0.41" d="M889.98,-881.53C920.37,-844.66 1041.74,-697.39 1089.02,-640.03"/>
<polygon fill="green" stroke="green" stroke-width="0.41" points="1091.52,-642.5 1095.18,-632.56 1086.12,-638.05 1091.52,-642.5"/>
</g>
<!-- z_score_MA_25_current&#45;&gt;Hold -->
<g id="edge20" class="edge">
<title>z_score_MA_25_current&#45;&gt;Hold</title>
<path fill="none" stroke="red" stroke-width="0.33" d="M882.85,-881.4C882.06,-829.5 879.69,-552.97 914,-331.14 926.3,-251.62 952.99,-160.62 967.72,-113.69"/>
<polygon fill="red" stroke="red" stroke-width="0.33" points="970.99,-114.95 970.67,-104.36 964.32,-112.84 970.99,-114.95"/>
</g>
<!-- z_score_MA_25_current&#45;&gt;Buy -->
<g id="edge21" class="edge">
<title>z_score_MA_25_current&#45;&gt;Buy</title>
<path fill="none" stroke="green" stroke-width="0.46" d="M884.58,-881.53C891.19,-846.15 916.78,-709.15 928.31,-647.44"/>
<polygon fill="green" stroke="green" stroke-width="0.46" points="931.71,-648.34 930.1,-637.86 924.83,-647.05 931.71,-648.34"/>
</g>
<!-- z_score_MA_10_current -->
<g id="node8" class="node">
<title>z_score_MA_10_current</title>
<polygon fill="lightgray" stroke="black" points="812.62,-900.25 707.38,-900.25 707.38,-881.75 812.62,-881.75 812.62,-900.25"/>
<text text-anchor="middle" x="760" y="-887.7" font-family="Times,serif" font-size="9.00">z_score_MA_10_current</text>
</g>
<!-- z_score_MA_10_current&#45;&gt;Sell -->
<g id="edge22" class="edge">
<title>z_score_MA_10_current&#45;&gt;Sell</title>
<path fill="none" stroke="red" stroke-width="0.23" d="M770.8,-881.53C819.08,-843.65 1015.85,-689.29 1084.35,-635.55"/>
<polygon fill="red" stroke="red" stroke-width="0.23" points="1086.35,-638.44 1092.05,-629.51 1082.03,-632.93 1086.35,-638.44"/>
</g>
<!-- z_score_MA_10_current&#45;&gt;Hold -->
<g id="edge23" class="edge">
<title>z_score_MA_10_current&#45;&gt;Hold</title>
<path fill="none" stroke="green" stroke-width="0.18" stroke-dasharray="1,5" d="M762.15,-881.44C775.12,-829.8 844.56,-554.49 906,-331.14 927.57,-252.72 954.55,-160.91 968.57,-113.66"/>
<polygon fill="green" stroke="green" stroke-width="0.18" points="971.86,-114.86 971.35,-104.28 965.15,-112.87 971.86,-114.86"/>
</g>
<!-- z_score_MA_10_current&#45;&gt;Buy -->
<g id="edge24" class="edge">
<title>z_score_MA_10_current&#45;&gt;Buy</title>
<path fill="none" stroke="green" stroke-width="0.71" d="M765.4,-881.53C788.33,-845.55 878.23,-704.5 916.55,-644.38"/>
<polygon fill="green" stroke="green" stroke-width="0.71" points="920.02,-645.44 922.45,-635.13 914.12,-641.68 920.02,-645.44"/>
</g>
<!-- z_score_MA_5_current -->
<g id="node9" class="node">
<title>z_score_MA_5_current</title>
<polygon fill="lightgray" stroke="black" points="1054.38,-900.25 953.62,-900.25 953.62,-881.75 1054.38,-881.75 1054.38,-900.25"/>
<text text-anchor="middle" x="1004" y="-887.7" font-family="Times,serif" font-size="9.00">z_score_MA_5_current</text>
</g>
<!-- z_score_MA_5_current&#45;&gt;Sell -->
<g id="edge25" class="edge">
<title>z_score_MA_5_current&#45;&gt;Sell</title>
<path fill="none" stroke="green" stroke-width="0.69" d="M1007.23,-881.53C1020.81,-845.87 1073.72,-706.99 1096.95,-646"/>
<polygon fill="green" stroke="green" stroke-width="0.69" points="1100.51,-646.48 1100.8,-635.89 1093.97,-643.99 1100.51,-646.48"/>
</g>
<!-- z_score_MA_5_current&#45;&gt;Hold -->
<g id="edge26" class="edge">
<title>z_score_MA_5_current&#45;&gt;Hold</title>
<path fill="none" stroke="red" stroke-width="0.15" d="M1003.73,-881.47C1001.31,-806.36 983.63,-257.03 979.07,-115.29"/>
<polygon fill="red" stroke="red" stroke-width="0.15" points="982.57,-115.31 978.75,-105.43 975.58,-115.54 982.57,-115.31"/>
</g>
<!-- z_score_MA_5_current&#45;&gt;Buy -->
<g id="edge27" class="edge">
<title>z_score_MA_5_current&#45;&gt;Buy</title>
<path fill="none" stroke="green" stroke-width="0.29" d="M1001.83,-881.53C992.73,-846.07 957.46,-708.49 941.69,-647"/>
<polygon fill="green" stroke="green" stroke-width="0.29" points="945.12,-646.28 939.25,-637.46 938.34,-648.02 945.12,-646.28"/>
</g>
<!-- z_score_lagged -->
<g id="node10" class="node">
<title>z_score_lagged</title>
<polygon fill="lightgray" stroke="black" points="1143.38,-900.25 1072.62,-900.25 1072.62,-881.75 1143.38,-881.75 1143.38,-900.25"/>
<text text-anchor="middle" x="1108" y="-887.7" font-family="Times,serif" font-size="9.00">z_score_lagged</text>
</g>
<!-- z_score_lagged&#45;&gt;Sell -->
<g id="edge28" class="edge">
<title>z_score_lagged&#45;&gt;Sell</title>
<path fill="none" stroke="green" stroke-width="0.32" d="M1108,-881.53C1108,-846.05 1108,-708.4 1108,-646.93"/>
<polygon fill="green" stroke="green" stroke-width="0.32" points="1111.5,-647.07 1108,-637.07 1104.5,-647.07 1111.5,-647.07"/>
</g>
<!-- z_score_lagged&#45;&gt;Hold -->
<g id="edge29" class="edge">
<title>z_score_lagged&#45;&gt;Hold</title>
<path fill="none" stroke="green" stroke-width="0.29" d="M1106.63,-881.47C1094.53,-806.28 1005.97,-255.82 983.28,-114.83"/>
<polygon fill="green" stroke="green" stroke-width="0.29" points="986.75,-114.34 981.7,-105.03 979.84,-115.46 986.75,-114.34"/>
</g>
<!-- z_score_lagged&#45;&gt;Buy -->
<g id="edge30" class="edge">
<title>z_score_lagged&#45;&gt;Buy</title>
<path fill="none" stroke="green" stroke-width="0.15" d="M1102.6,-881.53C1079.53,-845.33 988.66,-702.75 950.75,-643.28"/>
<polygon fill="green" stroke="green" stroke-width="0.15" points="953.88,-641.68 945.55,-635.13 947.98,-645.44 953.88,-641.68"/>
</g>
<!-- z_score_differenced -->
<g id="node11" class="node">
<title>z_score_differenced</title>
<polygon fill="lightgray" stroke="black" points="1248.62,-900.25 1161.38,-900.25 1161.38,-881.75 1248.62,-881.75 1248.62,-900.25"/>
<text text-anchor="middle" x="1205" y="-887.7" font-family="Times,serif" font-size="9.00">z_score_differenced</text>
</g>
<!-- z_score_differenced&#45;&gt;Sell -->
<g id="edge31" class="edge">
<title>z_score_differenced&#45;&gt;Sell</title>
<path fill="none" stroke="green" stroke-width="0.19" d="M1201.99,-881.53C1189.27,-845.72 1139.57,-705.84 1118.04,-645.24"/>
<polygon fill="green" stroke="green" stroke-width="0.19" points="1121.36,-644.14 1114.71,-635.89 1114.76,-646.49 1121.36,-644.14"/>
</g>
<!-- z_score_differenced&#45;&gt;Hold -->
<g id="edge32" class="edge">
<title>z_score_differenced&#45;&gt;Hold</title>
<path fill="none" stroke="green" stroke-width="0.44" d="M1204.15,-881.66C1200.43,-846.37 1184.52,-706.11 1156,-594.08 1108.35,-406.95 1022.75,-190.87 990.63,-112.43"/>
<polygon fill="green" stroke="green" stroke-width="0.44" points="994.03,-111.47 986.99,-103.55 987.55,-114.13 994.03,-111.47"/>
</g>
<!-- z_score_differenced&#45;&gt;Buy -->
<g id="edge33" class="edge">
<title>z_score_differenced&#45;&gt;Buy</title>
<path fill="none" stroke="red" stroke-width="0.45" d="M1196.59,-881.53C1159.83,-844.49 1012.52,-696.1 956.12,-639.28"/>
<polygon fill="red" stroke="red" stroke-width="0.45" points="958.62,-636.84 949.09,-632.2 953.65,-641.77 958.62,-636.84"/>
</g>
<!-- z_score_MSTD_10 -->
<g id="node12" class="node">
<title>z_score_MSTD_10</title>
<polygon fill="lightgray" stroke="black" points="208.25,-900.25 121.75,-900.25 121.75,-881.75 208.25,-881.75 208.25,-900.25"/>
<text text-anchor="middle" x="165" y="-887.7" font-family="Times,serif" font-size="9.00">z_score_MSTD_10</text>
</g>
<!-- z_score_MSTD_10&#45;&gt;Sell -->
<g id="edge34" class="edge">
<title>z_score_MSTD_10&#45;&gt;Sell</title>
<path fill="none" stroke="green" stroke-width="0.33" d="M182.55,-881.47C192.51,-876.82 205.29,-871.17 217,-866.96 547.91,-747.92 964.35,-649.7 1078.13,-623.73"/>
<polygon fill="green" stroke="green" stroke-width="0.33" points="1078.61,-627.21 1087.59,-621.58 1077.06,-620.38 1078.61,-627.21"/>
</g>
<!-- z_score_MSTD_10&#45;&gt;Hold -->
<g id="edge35" class="edge">
<title>z_score_MSTD_10&#45;&gt;Hold</title>
<path fill="none" stroke="red" stroke-width="0.34" stroke-dasharray="1,5" d="M173.39,-881.39C224.01,-829.43 494.18,-552.61 719,-331.14 804.47,-246.94 907.67,-148.66 953.74,-104.96"/>
<polygon fill="red" stroke="red" stroke-width="0.34" points="956.05,-107.61 960.9,-98.19 951.23,-102.53 956.05,-107.61"/>
</g>
<!-- z_score_MSTD_10&#45;&gt;Buy -->
<g id="edge36" class="edge">
<title>z_score_MSTD_10&#45;&gt;Buy</title>
<path fill="none" stroke="red" stroke-width="0.27" d="M183.62,-881.31C193.46,-876.83 205.8,-871.39 217,-866.96 479.25,-763.34 803.83,-658.37 903.49,-626.65"/>
<polygon fill="red" stroke="red" stroke-width="0.27" points="904.48,-630.01 912.95,-623.64 902.36,-623.34 904.48,-630.01"/>
</g>
<!-- z_score_MSTD_10&#45;&gt;430 -->
<g id="edge70" class="edge">
<title>z_score_MSTD_10&#45;&gt;430</title>
<path fill="none" stroke="red" stroke-width="0.34" d="M165,-881.53C165,-846.05 165,-708.4 165,-646.93"/>
<polygon fill="red" stroke="red" stroke-width="0.34" points="168.5,-647.07 165,-637.07 161.5,-647.07 168.5,-647.07"/>
</g>
<!-- bb_upper -->
<g id="node13" class="node">
<title>bb_upper</title>
<polygon fill="lightgray" stroke="black" points="1316.88,-900.25 1267.12,-900.25 1267.12,-881.75 1316.88,-881.75 1316.88,-900.25"/>
<text text-anchor="middle" x="1292" y="-887.7" font-family="Times,serif" font-size="9.00">bb_upper</text>
</g>
<!-- bb_upper&#45;&gt;Sell -->
<g id="edge37" class="edge">
<title>bb_upper&#45;&gt;Sell</title>
<path fill="none" stroke="red" stroke-width="0.45" d="M1286.29,-881.53C1261.72,-845.07 1164.43,-700.72 1124.86,-642.02"/>
<polygon fill="red" stroke="red" stroke-width="0.45" points="1127.95,-640.34 1119.46,-634 1122.15,-644.25 1127.95,-640.34"/>
</g>
<!-- bb_upper&#45;&gt;Hold -->
<g id="edge38" class="edge">
<title>bb_upper&#45;&gt;Hold</title>
<path fill="none" stroke="red" stroke-width="0.29" d="M1289.34,-881.34C1273.22,-829.09 1186.26,-550.83 1096,-331.14 1062.82,-250.38 1017.01,-158.2 993.41,-111.89"/>
<polygon fill="red" stroke="red" stroke-width="0.29" points="996.53,-110.3 988.87,-102.99 990.3,-113.49 996.53,-110.3"/>
</g>
<!-- bb_upper&#45;&gt;Buy -->
<g id="edge39" class="edge">
<title>bb_upper&#45;&gt;Buy</title>
<path fill="none" stroke="red" stroke-width="0.37" d="M1280.89,-881.53C1231.35,-843.75 1029.82,-690.07 958.87,-635.96"/>
<polygon fill="red" stroke="red" stroke-width="0.37" points="961.33,-633.44 951.26,-630.16 957.09,-639.01 961.33,-633.44"/>
</g>
<!-- bb_lower -->
<g id="node14" class="node">
<title>bb_lower</title>
<polygon fill="lightgray" stroke="black" points="1384.88,-900.25 1335.12,-900.25 1335.12,-881.75 1384.88,-881.75 1384.88,-900.25"/>
<text text-anchor="middle" x="1360" y="-887.7" font-family="Times,serif" font-size="9.00">bb_lower</text>
</g>
<!-- bb_lower&#45;&gt;Sell -->
<g id="edge40" class="edge">
<title>bb_lower&#45;&gt;Sell</title>
<path fill="none" stroke="red" stroke-width="0.25" d="M1352.18,-881.53C1317.91,-844.41 1180.38,-695.41 1128.21,-638.89"/>
<polygon fill="red" stroke="red" stroke-width="0.25" points="1131.07,-636.83 1121.71,-631.85 1125.92,-641.58 1131.07,-636.83"/>
</g>
<!-- bb_lower&#45;&gt;Hold -->
<g id="edge41" class="edge">
<title>bb_lower&#45;&gt;Hold</title>
<path fill="none" stroke="red" stroke-width="0.18" d="M1356.6,-881.32C1336.03,-828.96 1225.4,-550.18 1117,-331.14 1076.53,-249.36 1022.33,-156.27 995.11,-110.49"/>
<polygon fill="red" stroke="red" stroke-width="0.18" points="998.17,-108.78 990.04,-101.98 992.15,-112.36 998.17,-108.78"/>
</g>
<!-- bb_lower&#45;&gt;Buy -->
<g id="edge42" class="edge">
<title>bb_lower&#45;&gt;Buy</title>
<path fill="none" stroke="green" stroke-width="0.62" d="M1347.46,-881.38C1341.07,-877.02 1333.15,-871.66 1326,-866.96 1189.77,-777.39 1024.46,-673.54 960.78,-633.72"/>
<polygon fill="green" stroke="green" stroke-width="0.62" points="962.82,-630.86 952.49,-628.53 959.11,-636.8 962.82,-630.86"/>
</g>
<!-- bb_signal -->
<g id="node15" class="node">
<title>bb_signal</title>
<polygon fill="lightgray" stroke="black" points="1453.25,-900.25 1402.75,-900.25 1402.75,-881.75 1453.25,-881.75 1453.25,-900.25"/>
<text text-anchor="middle" x="1428" y="-887.7" font-family="Times,serif" font-size="9.00">bb_signal</text>
</g>
<!-- bb_signal&#45;&gt;Sell -->
<g id="edge43" class="edge">
<title>bb_signal&#45;&gt;Sell</title>
<path fill="none" stroke="green" stroke-width="0.33" d="M1418.07,-881.53C1373.96,-843.9 1195.11,-691.32 1131,-636.63"/>
<polygon fill="green" stroke="green" stroke-width="0.33" points="1133.31,-633.99 1123.43,-630.16 1128.76,-639.31 1133.31,-633.99"/>
</g>
<!-- bb_signal&#45;&gt;Hold -->
<g id="edge44" class="edge">
<title>bb_signal&#45;&gt;Hold</title>
<path fill="none" stroke="red" stroke-width="0.4" d="M1423.89,-881.3C1399.03,-828.81 1265.57,-549.42 1139,-331.14 1091.07,-248.48 1028.04,-154.77 996.98,-109.44"/>
<polygon fill="red" stroke="red" stroke-width="0.4" points="999.93,-107.56 991.39,-101.3 994.16,-111.52 999.93,-107.56"/>
</g>
<!-- bb_signal&#45;&gt;Buy -->
<g id="edge45" class="edge">
<title>bb_signal&#45;&gt;Buy</title>
<path fill="none" stroke="red" stroke-width="0.15" d="M1415.91,-881.39C1409.5,-876.93 1401.43,-871.48 1394,-866.96 1234.29,-769.77 1034.24,-667.38 961.8,-630.9"/>
<polygon fill="red" stroke="red" stroke-width="0.15" points="963.72,-627.95 953.22,-626.59 960.58,-634.2 963.72,-627.95"/>
</g>
<!-- rsi -->
<g id="node16" class="node">
<title>rsi</title>
<polygon fill="lightgray" stroke="black" points="1572.5,-900.25 1547.5,-900.25 1547.5,-881.75 1572.5,-881.75 1572.5,-900.25"/>
<text text-anchor="middle" x="1560" y="-887.7" font-family="Times,serif" font-size="9.00">rsi</text>
</g>
<!-- rsi&#45;&gt;Sell -->
<g id="edge46" class="edge">
<title>rsi&#45;&gt;Sell</title>
<path fill="none" stroke="green" stroke-width="0.32" d="M1550.83,-881.48C1545.75,-876.94 1539.22,-871.39 1533,-866.96 1390.22,-765.23 1203.88,-666.29 1135.06,-630.79"/>
<polygon fill="green" stroke="green" stroke-width="0.32" points="1137.01,-627.85 1126.52,-626.39 1133.81,-634.08 1137.01,-627.85"/>
</g>
<!-- rsi&#45;&gt;Hold -->
<g id="edge47" class="edge">
<title>rsi&#45;&gt;Hold</title>
<path fill="none" stroke="green" stroke-width="0.21" d="M1554,-881.42C1517.8,-829.62 1324.57,-553.58 1163,-331.14 1103.69,-249.48 1032.11,-153.92 997.98,-108.53"/>
<polygon fill="green" stroke="green" stroke-width="0.21" points="1000.87,-106.54 992.06,-100.65 995.27,-110.75 1000.87,-106.54"/>
</g>
<!-- rsi&#45;&gt;Buy -->
<g id="edge48" class="edge">
<title>rsi&#45;&gt;Buy</title>
<path fill="none" stroke="red" stroke-width="0.52" d="M1547.21,-884.42C1470.81,-851.1 1074.26,-678.17 963.03,-629.66"/>
<polygon fill="red" stroke="red" stroke-width="0.52" points="964.62,-626.53 954.05,-625.74 961.82,-632.95 964.62,-626.53"/>
</g>
<!-- macd -->
<g id="node17" class="node">
<title>macd</title>
<polygon fill="lightgray" stroke="black" points="1625.38,-900.25 1590.62,-900.25 1590.62,-881.75 1625.38,-881.75 1625.38,-900.25"/>
<text text-anchor="middle" x="1608" y="-887.7" font-family="Times,serif" font-size="9.00">macd</text>
</g>
<!-- macd&#45;&gt;Sell -->
<g id="edge49" class="edge">
<title>macd&#45;&gt;Sell</title>
<path fill="none" stroke="red" stroke-width="0.21" d="M1598.91,-881.36C1593.85,-876.79 1587.32,-871.25 1581,-866.96 1421.81,-758.91 1210.56,-662.07 1135.72,-629.03"/>
<polygon fill="red" stroke="red" stroke-width="0.21" points="1137.44,-625.97 1126.88,-625.15 1134.62,-632.38 1137.44,-625.97"/>
</g>
<!-- macd&#45;&gt;Hold -->
<g id="edge50" class="edge">
<title>macd&#45;&gt;Hold</title>
<path fill="none" stroke="green" stroke-width="0.17" d="M1601.79,-881.32C1564.26,-828.96 1363.61,-550.18 1189,-331.14 1122.34,-247.52 1039.33,-151.83 1000.27,-107.28"/>
<polygon fill="green" stroke="green" stroke-width="0.17" points="1002.96,-105.03 993.73,-99.82 997.7,-109.65 1002.96,-105.03"/>
</g>
<!-- macd&#45;&gt;Buy -->
<g id="edge51" class="edge">
<title>macd&#45;&gt;Buy</title>
<path fill="none" stroke="green" stroke-width="0.53" d="M1599.58,-881.51C1594.53,-876.76 1587.78,-871 1581,-866.96 1361.22,-735.94 1060.56,-650.22 964.68,-624.86"/>
<polygon fill="green" stroke="green" stroke-width="0.53" points="965.85,-621.54 955.29,-622.39 964.07,-628.31 965.85,-621.54"/>
</g>
<!-- macd_signal -->
<g id="node18" class="node">
<title>macd_signal</title>
<polygon fill="lightgray" stroke="black" points="1704.12,-900.25 1643.88,-900.25 1643.88,-881.75 1704.12,-881.75 1704.12,-900.25"/>
<text text-anchor="middle" x="1674" y="-887.7" font-family="Times,serif" font-size="9.00">macd_signal</text>
</g>
<!-- macd_signal&#45;&gt;Sell -->
<g id="edge52" class="edge">
<title>macd_signal&#45;&gt;Sell</title>
<path fill="none" stroke="red" stroke-width="0.22" d="M1659.71,-881.4C1652.15,-876.95 1642.66,-871.5 1634,-866.96 1446.87,-768.79 1214.69,-664.31 1135.75,-629.25"/>
<polygon fill="red" stroke="red" stroke-width="0.22" points="1137.46,-626.18 1126.9,-625.33 1134.62,-632.58 1137.46,-626.18"/>
</g>
<!-- macd_signal&#45;&gt;Hold -->
<g id="edge53" class="edge">
<title>macd_signal&#45;&gt;Hold</title>
<path fill="none" stroke="red" stroke-width="0.2" d="M1667.24,-881.26C1626.43,-828.56 1408.06,-548.13 1216,-331.14 1140.29,-245.61 1045.11,-149.06 1001.63,-105.51"/>
<polygon fill="red" stroke="red" stroke-width="0.2" points="1004.16,-103.1 994.61,-98.5 999.21,-108.05 1004.16,-103.1"/>
</g>
<!-- macd_signal&#45;&gt;Buy -->
<g id="edge54" class="edge">
<title>macd_signal&#45;&gt;Buy</title>
<path fill="none" stroke="green" stroke-width="0.21" d="M1660.26,-881.26C1652.69,-876.66 1643.02,-871.13 1634,-866.96 1383.71,-751.32 1063.6,-654.59 964.57,-625.76"/>
<polygon fill="green" stroke="green" stroke-width="0.21" points="965.74,-622.46 955.16,-623.03 963.79,-629.18 965.74,-622.46"/>
</g>
<!-- macd_signal_difference -->
<g id="node19" class="node">
<title>macd_signal_difference</title>
<polygon fill="lightgray" stroke="black" points="1822,-900.25 1722,-900.25 1722,-881.75 1822,-881.75 1822,-900.25"/>
<text text-anchor="middle" x="1772" y="-887.7" font-family="Times,serif" font-size="9.00">macd_signal_difference</text>
</g>
<!-- macd_signal_difference&#45;&gt;Sell -->
<g id="edge55" class="edge">
<title>macd_signal_difference&#45;&gt;Sell</title>
<path fill="none" stroke="green" stroke-width="0.48" d="M1751.03,-881.38C1653.89,-841.44 1247.65,-674.41 1136.32,-628.64"/>
<polygon fill="green" stroke="green" stroke-width="0.48" points="1137.93,-625.52 1127.35,-624.96 1135.27,-632 1137.93,-625.52"/>
</g>
<!-- macd_signal_difference&#45;&gt;Hold -->
<g id="edge56" class="edge">
<title>macd_signal_difference&#45;&gt;Hold</title>
<path fill="none" stroke="red" stroke-width="0.14" d="M1764.13,-881.28C1716.59,-828.67 1462.5,-548.69 1244,-331.14 1157.57,-245.08 1050.48,-147.36 1002.85,-104.34"/>
<polygon fill="red" stroke="red" stroke-width="0.14" points="1005.23,-101.77 995.46,-97.67 1000.54,-106.97 1005.23,-101.77"/>
</g>
<!-- macd_signal_difference&#45;&gt;Buy -->
<g id="edge57" class="edge">
<title>macd_signal_difference&#45;&gt;Buy</title>
<path fill="none" stroke="red" stroke-width="0.23" d="M1750.54,-881.25C1739.4,-876.8 1725.54,-871.41 1713,-866.96 1424.19,-764.34 1068.77,-657.12 964.24,-625.97"/>
<polygon fill="red" stroke="red" stroke-width="0.23" points="965.51,-622.69 954.92,-623.19 963.51,-629.4 965.51,-622.69"/>
</g>
<!-- 267 -->
<g id="node26" class="node">
<title>267</title>
<ellipse fill="white" stroke="black" cx="1712" cy="-352" rx="20.86" ry="20.86"/>
<text text-anchor="middle" x="1712" y="-348.7" font-family="Times,serif" font-size="9.00">267</text>
</g>
<!-- macd_signal_difference&#45;&gt;267 -->
<g id="edge63" class="edge">
<title>macd_signal_difference&#45;&gt;267</title>
<path fill="none" stroke="green" stroke-width="0.43" d="M1771.06,-881.57C1764.61,-823.84 1726.89,-486.26 1715.35,-383"/>
<polygon fill="green" stroke="green" stroke-width="0.43" points="1718.85,-382.76 1714.26,-373.21 1711.89,-383.54 1718.85,-382.76"/>
</g>
<!-- Sell&#45;&gt;Sell -->
<g id="edge58" class="edge">
<title>Sell&#45;&gt;Sell</title>
<path fill="none" stroke="red" stroke-width="0.24" d="M1113.02,-636.48C1126.67,-681.09 1146.86,-674.27 1146.86,-616 1146.86,-562.06 1129.56,-552.2 1116.16,-586.43"/>
<polygon fill="red" stroke="red" stroke-width="0.24" points="1112.98,-584.92 1113.02,-595.52 1119.6,-587.21 1112.98,-584.92"/>
</g>
<!-- Sell&#45;&gt;392 -->
<g id="edge67" class="edge">
<title>Sell&#45;&gt;392</title>
<path fill="none" stroke="green" stroke-width="0.59" d="M1097.24,-597.81C1069.09,-552.84 993.16,-431.54 959.94,-378.46"/>
<polygon fill="green" stroke="green" stroke-width="0.59" points="963.07,-376.87 954.8,-370.25 957.14,-380.59 963.07,-376.87"/>
</g>
<!-- Hold&#45;&gt;Hold -->
<g id="edge59" class="edge">
<title>Hold&#45;&gt;Hold</title>
<path fill="none" stroke="green" stroke-width="0.23" d="M984.33,-104.7C999.06,-147.52 1020.04,-139.62 1020.04,-81 1020.04,-26.96 1002.21,-16.02 987.88,-48.19"/>
<polygon fill="green" stroke="green" stroke-width="0.23" points="984.7,-46.71 984.33,-57.3 991.22,-49.26 984.7,-46.71"/>
</g>
<!-- Buy&#45;&gt;Buy -->
<g id="edge60" class="edge">
<title>Buy&#45;&gt;Buy</title>
<path fill="none" stroke="red" stroke-width="0.23" d="M939.54,-637.66C953.54,-680.97 973.92,-673.75 973.92,-616 973.92,-562.76 956.6,-552.47 942.92,-585.12"/>
<polygon fill="red" stroke="red" stroke-width="0.23" points="939.7,-583.75 939.54,-594.34 946.27,-586.16 939.7,-583.75"/>
</g>
<!-- Buy&#45;&gt;392 -->
<g id="edge71" class="edge">
<title>Buy&#45;&gt;392</title>
<path fill="none" stroke="green" stroke-width="0.37" d="M934.8,-594C936.57,-547.67 940.81,-436.55 942.86,-382.93"/>
<polygon fill="green" stroke="green" stroke-width="0.37" points="946.35,-383.14 943.24,-373.01 939.36,-382.87 946.35,-383.14"/>
</g>
<!-- 2178&#45;&gt;Buy -->
<g id="edge73" class="edge">
<title>2178&#45;&gt;Buy</title>
<path fill="none" stroke="green" stroke-width="0.33" stroke-dasharray="1,5" d="M454.39,-1150.4C434.81,-1097.5 392.84,-959.08 449,-866.96 552.5,-697.18 812.35,-637.77 902.56,-621.88"/>
<polygon fill="green" stroke="green" stroke-width="0.33" points="902.95,-625.36 912.22,-620.23 901.77,-618.46 902.95,-625.36"/>
</g>
<!-- 3043 -->
<g id="node24" class="node">
<title>3043</title>
<ellipse fill="white" stroke="black" cx="482" cy="-891" rx="24.04" ry="24.04"/>
<text text-anchor="middle" x="482" y="-887.7" font-family="Times,serif" font-size="9.00">3043</text>
</g>
<!-- 2178&#45;&gt;3043 -->
<g id="edge74" class="edge">
<title>2178&#45;&gt;3043</title>
<path fill="none" stroke="green" stroke-width="0.3" d="M464.59,-1148.61C467.97,-1098.76 475.89,-981.98 479.78,-924.76"/>
<polygon fill="green" stroke="green" stroke-width="0.3" points="483.25,-925.34 480.43,-915.13 476.26,-924.87 483.25,-925.34"/>
</g>
<!-- 3043&#45;&gt;Buy -->
<g id="edge75" class="edge">
<title>3043&#45;&gt;Buy</title>
<path fill="none" stroke="green" stroke-width="0.16" d="M501.39,-876.12C505.82,-873.04 510.54,-869.84 515,-866.96 659.68,-773.46 838.92,-670.77 906.5,-632.5"/>
<polygon fill="green" stroke="green" stroke-width="0.16" points="907.93,-635.71 914.91,-627.74 904.49,-629.61 907.93,-635.71"/>
</g>
<!-- 392&#45;&gt;Hold -->
<g id="edge66" class="edge">
<title>392&#45;&gt;Hold</title>
<path fill="none" stroke="green" stroke-width="0.15" d="M946.5,-331.22C952.29,-285.42 966.67,-171.67 973.82,-115.08"/>
<polygon fill="green" stroke="green" stroke-width="0.15" points="977.29,-115.56 975.07,-105.2 970.34,-114.68 977.29,-115.56"/>
</g>
<!-- 267&#45;&gt;Hold -->
<g id="edge64" class="edge">
<title>267&#45;&gt;Hold</title>
<path fill="none" stroke="green" stroke-width="0.22" d="M1694.08,-340.99C1687.82,-337.66 1680.68,-334.07 1674,-331.14 1424.54,-221.93 1110.47,-122.6 1010.26,-91.8"/>
<polygon fill="green" stroke="green" stroke-width="0.22" points="1011.56,-88.54 1000.98,-88.95 1009.51,-95.23 1011.56,-88.54"/>
</g>
<!-- 430&#45;&gt;Hold -->
<g id="edge69" class="edge">
<title>430&#45;&gt;Hold</title>
<path fill="none" stroke="red" stroke-width="0.26" d="M166.13,-594.7C170.09,-543.32 187.53,-406.82 263,-331.14 462.37,-131.2 830.53,-91.38 943.89,-83.75"/>
<polygon fill="red" stroke="red" stroke-width="0.26" points="943.99,-87.25 953.74,-83.12 943.54,-80.26 943.99,-87.25"/>
</g>
<!-- 175&#45;&gt;Sell -->
<g id="edge62" class="edge">
<title>175&#45;&gt;Sell</title>
<path fill="none" stroke="red" stroke-width="0.86" d="M1533.2,-1151.94C1540.36,-1100.24 1552.8,-960.01 1495,-866.96 1408.72,-728.05 1213.43,-651.59 1138.27,-626.43"/>
<polygon fill="red" stroke="red" stroke-width="0.86" points="1139.67,-622.88 1129.08,-623.09 1137.49,-629.53 1139.67,-622.88"/>
</g>
</g>
</svg>
