<?xml version="1.0" encoding="UTF-8" standalone="no"?>
<!DOCTYPE svg PUBLIC "-//W3C//DTD SVG 1.1//EN"
 "http://www.w3.org/Graphics/SVG/1.1/DTD/svg11.dtd">
<!-- Generated by graphviz version 2.50.0 (0)
 -->
<!-- Pages: 1 -->
<svg width="1829pt" height="190pt"
 viewBox="0.00 0.00 1828.70 189.92" xmlns="http://www.w3.org/2000/svg" xmlns:xlink="http://www.w3.org/1999/xlink">
<g id="graph0" class="graph" transform="scale(1 1) rotate(0) translate(4 185.92)">
<polygon fill="white" stroke="transparent" points="-4,4 -4,-185.92 1824.7,-185.92 1824.7,4 -4,4"/>
<!-- z_score -->
<g id="node1" class="node">
<title>z_score</title>
<polygon fill="lightgray" stroke="black" points="894.57,-115.71 850.57,-115.71 850.57,-97.71 894.57,-97.71 894.57,-115.71"/>
<text text-anchor="middle" x="872.57" y="-104.51" font-family="Times,serif" font-size="9.00">z_score</text>
</g>
<!-- Sell -->
<g id="node20" class="node">
<title>Sell</title>
<ellipse fill="lightblue" stroke="black" cx="990.57" cy="-24.75" rx="21.43" ry="21.43"/>
<text text-anchor="middle" x="990.57" y="-22.55" font-family="Times,serif" font-size="9.00">Sell</text>
</g>
<!-- z_score&#45;&gt;Sell -->
<g id="edge1" class="edge">
<title>z_score&#45;&gt;Sell</title>
<path fill="none" stroke="green" stroke-width="0.29" d="M884.75,-97.45C903.53,-84.73 939.96,-60.05 964.77,-43.23"/>
<polygon fill="green" stroke="green" stroke-width="0.29" points="967.02,-45.94 973.33,-37.43 963.09,-40.14 967.02,-45.94"/>
</g>
<!-- Hold -->
<g id="node21" class="node">
<title>Hold</title>
<ellipse fill="lightblue" stroke="black" cx="738.57" cy="-24.75" rx="25" ry="25"/>
<text text-anchor="middle" x="738.57" y="-22.55" font-family="Times,serif" font-size="9.00">Hold</text>
</g>
<!-- z_score&#45;&gt;Hold -->
<g id="edge2" class="edge">
<title>z_score&#45;&gt;Hold</title>
<path fill="none" stroke="green" stroke-width="0.25" d="M860.59,-97.69C854.88,-93.92 847.92,-89.4 841.57,-85.5 817.45,-70.65 789.64,-54.58 769.01,-42.85"/>
<polygon fill="green" stroke="green" stroke-width="0.25" points="770.49,-39.67 760.07,-37.79 767.04,-45.76 770.49,-39.67"/>
</g>
<!-- Buy -->
<g id="node22" class="node">
<title>Buy</title>
<ellipse fill="lightblue" stroke="black" cx="1112.57" cy="-24.75" rx="22.76" ry="22.76"/>
<text text-anchor="middle" x="1112.57" y="-22.55" font-family="Times,serif" font-size="9.00">Buy</text>
</g>
<!-- z_score&#45;&gt;Buy -->
<g id="edge3" class="edge">
<title>z_score&#45;&gt;Buy</title>
<path fill="none" stroke="red" stroke-width="0.3" d="M883.28,-97.52C889.04,-93.43 896.41,-88.69 903.57,-85.5 960.29,-60.22 978.99,-66.99 1038.57,-49.5 1052.81,-45.32 1068.47,-40.35 1081.7,-36.04"/>
<polygon fill="red" stroke="red" stroke-width="0.3" points="1082.88,-39.33 1091.29,-32.89 1080.69,-32.68 1082.88,-39.33"/>
</g>
<!-- z_score_MA_50 -->
<g id="node2" class="node">
<title>z_score_MA_50</title>
<polygon fill="lightgray" stroke="black" points="727.07,-115.71 650.07,-115.71 650.07,-97.71 727.07,-97.71 727.07,-115.71"/>
<text text-anchor="middle" x="688.57" y="-104.51" font-family="Times,serif" font-size="9.00">z_score_MA_50</text>
</g>
<!-- z_score_MA_50&#45;&gt;Sell -->
<g id="edge4" class="edge">
<title>z_score_MA_50&#45;&gt;Sell</title>
<path fill="none" stroke="red" stroke-width="0.29" d="M705.64,-97.7C714.69,-93.66 726.08,-88.91 736.57,-85.5 815.46,-59.81 911.48,-40.3 959.74,-31.27"/>
<polygon fill="red" stroke="red" stroke-width="0.29" points="960.64,-34.66 969.84,-29.4 959.37,-27.78 960.64,-34.66"/>
</g>
<!-- z_score_MA_50&#45;&gt;Hold -->
<g id="edge5" class="edge">
<title>z_score_MA_50&#45;&gt;Hold</title>
<path fill="none" stroke="red" stroke-width="0.23" d="M693.73,-97.45C699.99,-87.45 710.88,-70.04 720.35,-54.88"/>
<polygon fill="red" stroke="red" stroke-width="0.23" points="723.39,-56.63 725.73,-46.29 717.46,-52.92 723.39,-56.63"/>
</g>
<!-- z_score_MA_50&#45;&gt;Buy -->
<g id="edge6" class="edge">
<title>z_score_MA_50&#45;&gt;Buy</title>
<path fill="none" stroke="green" stroke-width="0.48" d="M704.61,-97.62C713.76,-93.35 725.56,-88.41 736.57,-85.5 867.25,-50.93 906.5,-78.28 1038.57,-49.5 1053.07,-46.34 1068.77,-41.51 1081.96,-37.03"/>
<polygon fill="green" stroke="green" stroke-width="0.48" points="1083.2,-40.3 1091.49,-33.71 1080.9,-33.69 1083.2,-40.3"/>
</g>
<!-- z_score_MA_25 -->
<g id="node3" class="node">
<title>z_score_MA_25</title>
<polygon fill="lightgray" stroke="black" points="1151.07,-181.92 1074.07,-181.92 1074.07,-163.92 1151.07,-163.92 1151.07,-181.92"/>
<text text-anchor="middle" x="1112.57" y="-170.72" font-family="Times,serif" font-size="9.00">z_score_MA_25</text>
</g>
<!-- z_score_MA_25&#45;&gt;Sell -->
<g id="edge7" class="edge">
<title>z_score_MA_25&#45;&gt;Sell</title>
<path fill="none" stroke="green" stroke-width="0.19" stroke-dasharray="1,5" d="M1151.26,-171.37C1261.36,-169.38 1570.44,-160.89 1600.57,-127.92 1613.29,-114 1613.44,-99.28 1600.57,-85.5 1561.06,-43.15 1137.71,-58.93 1080.57,-49.5 1060.18,-46.13 1037.7,-40.2 1020.31,-35.11"/>
<polygon fill="green" stroke="green" stroke-width="0.19" points="1021.29,-31.75 1010.71,-32.23 1019.28,-38.46 1021.29,-31.75"/>
</g>
<!-- z_score_MA_25&#45;&gt;Hold -->
<g id="edge8" class="edge">
<title>z_score_MA_25&#45;&gt;Hold</title>
<path fill="none" stroke="red" stroke-width="0.26" d="M1073.99,-171.71C893.59,-170.53 140.61,-163.48 106.57,-127.92 93.53,-114.3 93.88,-99.44 106.57,-85.5 146.98,-41.09 576.48,-28.99 703.43,-26.37"/>
<polygon fill="red" stroke="red" stroke-width="0.26" points="703.81,-29.87 713.74,-26.17 703.67,-22.87 703.81,-29.87"/>
</g>
<!-- z_score_MA_25&#45;&gt;Buy -->
<g id="edge9" class="edge">
<title>z_score_MA_25&#45;&gt;Buy</title>
<path fill="none" stroke="green" stroke-width="0.68" d="M1151.18,-171.84C1271.91,-171.18 1636.34,-166.03 1671.57,-127.92 1684.37,-114.08 1684.18,-99.52 1671.57,-85.5 1636.22,-46.16 1259.97,-30.6 1145.46,-26.76"/>
<polygon fill="green" stroke="green" stroke-width="0.68" points="1145.32,-23.25 1135.21,-26.42 1145.09,-30.25 1145.32,-23.25"/>
</g>
<!-- 84 -->
<g id="node24" class="node">
<title>84</title>
<ellipse fill="white" stroke="black" cx="36.57" cy="-106.71" rx="18.27" ry="18.27"/>
<text text-anchor="middle" x="36.57" y="-104.51" font-family="Times,serif" font-size="9.00">84</text>
</g>
<!-- z_score_MA_25&#45;&gt;84 -->
<g id="edge62" class="edge">
<title>z_score_MA_25&#45;&gt;84</title>
<path fill="none" stroke="green" stroke-width="0.14" d="M1074.05,-171.48C897,-169.26 165.87,-158.31 68.57,-127.92 65.53,-126.97 62.5,-125.66 59.58,-124.16"/>
<polygon fill="green" stroke="green" stroke-width="0.14" points="61.13,-121.01 50.75,-118.9 57.55,-127.02 61.13,-121.01"/>
</g>
<!-- z_score_MA_10 -->
<g id="node4" class="node">
<title>z_score_MA_10</title>
<polygon fill="lightgray" stroke="black" points="1591.07,-115.71 1514.07,-115.71 1514.07,-97.71 1591.07,-97.71 1591.07,-115.71"/>
<text text-anchor="middle" x="1552.57" y="-104.51" font-family="Times,serif" font-size="9.00">z_score_MA_10</text>
</g>
<!-- z_score_MA_10&#45;&gt;Sell -->
<g id="edge10" class="edge">
<title>z_score_MA_10&#45;&gt;Sell</title>
<path fill="none" stroke="red" stroke-width="0.19" d="M1537,-97.68C1527.81,-93.32 1515.81,-88.27 1504.57,-85.5 1320.94,-40.24 1266.92,-81.74 1080.57,-49.5 1060.21,-45.97 1037.73,-40.04 1020.33,-34.99"/>
<polygon fill="red" stroke="red" stroke-width="0.19" points="1021.31,-31.63 1010.72,-32.14 1019.32,-38.34 1021.31,-31.63"/>
</g>
<!-- z_score_MA_10&#45;&gt;Hold -->
<g id="edge11" class="edge">
<title>z_score_MA_10&#45;&gt;Hold</title>
<path fill="none" stroke="green" stroke-width="0.42" d="M1537.02,-97.6C1527.83,-93.22 1515.83,-88.16 1504.57,-85.5 1268.77,-29.71 1201.98,-70.39 960.57,-49.5 894.21,-43.75 816.92,-35.02 773.27,-29.9"/>
<polygon fill="green" stroke="green" stroke-width="0.42" points="773.52,-26.41 763.18,-28.71 772.7,-33.36 773.52,-26.41"/>
</g>
<!-- z_score_MA_10&#45;&gt;Buy -->
<g id="edge12" class="edge">
<title>z_score_MA_10&#45;&gt;Buy</title>
<path fill="none" stroke="red" stroke-width="0.42" d="M1536.05,-97.56C1526.96,-93.38 1515.36,-88.54 1504.57,-85.5 1374.39,-48.78 1213.11,-33.23 1145.17,-27.98"/>
<polygon fill="red" stroke="red" stroke-width="0.42" points="1145.32,-24.48 1135.08,-27.23 1144.79,-31.46 1145.32,-24.48"/>
</g>
<!-- z_score_MA_5 -->
<g id="node5" class="node">
<title>z_score_MA_5</title>
<polygon fill="lightgray" stroke="black" points="264.57,-115.71 192.57,-115.71 192.57,-97.71 264.57,-97.71 264.57,-115.71"/>
<text text-anchor="middle" x="228.57" y="-104.51" font-family="Times,serif" font-size="9.00">z_score_MA_5</text>
</g>
<!-- z_score_MA_5&#45;&gt;Sell -->
<g id="edge13" class="edge">
<title>z_score_MA_5&#45;&gt;Sell</title>
<path fill="none" stroke="red" stroke-width="0.17" d="M243.1,-97.61C251.69,-93.22 262.94,-88.17 273.57,-85.5 496.98,-29.44 561.25,-71.08 790.57,-49.5 850.52,-43.85 920.32,-35.06 959.59,-29.9"/>
<polygon fill="red" stroke="red" stroke-width="0.17" points="960.13,-33.36 969.59,-28.58 959.21,-26.42 960.13,-33.36"/>
</g>
<!-- z_score_MA_5&#45;&gt;Hold -->
<g id="edge14" class="edge">
<title>z_score_MA_5&#45;&gt;Hold</title>
<path fill="none" stroke="red" stroke-width="0.21" d="M243.56,-97.63C252.12,-93.37 263.19,-88.43 273.57,-85.5 429.94,-41.38 625.17,-29.74 703.59,-26.75"/>
<polygon fill="red" stroke="red" stroke-width="0.21" points="703.99,-30.24 713.86,-26.38 703.74,-23.24 703.99,-30.24"/>
</g>
<!-- z_score_MA_5&#45;&gt;Buy -->
<g id="edge15" class="edge">
<title>z_score_MA_5&#45;&gt;Buy</title>
<path fill="none" stroke="red" stroke-width="0.29" d="M243.07,-97.52C251.66,-93.1 262.91,-88.05 273.57,-85.5 604.62,-6.38 703.62,-110.03 1038.57,-49.5 1053.28,-46.84 1069.11,-42.04 1082.34,-37.44"/>
<polygon fill="red" stroke="red" stroke-width="0.29" points="1083.67,-40.68 1091.89,-34.01 1081.3,-34.1 1083.67,-40.68"/>
</g>
<!-- z_score_MA_50_current -->
<g id="node6" class="node">
<title>z_score_MA_50_current</title>
<polygon fill="lightgray" stroke="black" points="388.57,-115.71 282.57,-115.71 282.57,-97.71 388.57,-97.71 388.57,-115.71"/>
<text text-anchor="middle" x="335.57" y="-104.51" font-family="Times,serif" font-size="9.00">z_score_MA_50_current</text>
</g>
<!-- z_score_MA_50_current&#45;&gt;Sell -->
<g id="edge16" class="edge">
<title>z_score_MA_50_current&#45;&gt;Sell</title>
<path fill="none" stroke="red" stroke-width="0.25" d="M356.21,-97.7C368.12,-93.4 383.49,-88.4 397.57,-85.5 569.36,-50.09 616.14,-67.84 790.57,-49.5 850.46,-43.2 920.28,-34.63 959.57,-29.69"/>
<polygon fill="red" stroke="red" stroke-width="0.25" points="960.09,-33.15 969.57,-28.43 959.21,-26.21 960.09,-33.15"/>
</g>
<!-- z_score_MA_50_current&#45;&gt;Hold -->
<g id="edge17" class="edge">
<title>z_score_MA_50_current&#45;&gt;Hold</title>
<path fill="none" stroke="green" stroke-width="0.18" d="M357.73,-97.64C369.46,-93.59 384.17,-88.84 397.57,-85.5 508.11,-57.94 641.89,-38.44 703.9,-30.17"/>
<polygon fill="green" stroke="green" stroke-width="0.18" points="704.47,-33.62 713.93,-28.85 703.55,-26.68 704.47,-33.62"/>
</g>
<!-- z_score_MA_50_current&#45;&gt;Buy -->
<g id="edge18" class="edge">
<title>z_score_MA_50_current&#45;&gt;Buy</title>
<path fill="none" stroke="red" stroke-width="0.21" d="M355.89,-97.61C367.83,-93.23 383.33,-88.17 397.57,-85.5 678.01,-32.83 758.01,-101.51 1038.57,-49.5 1053.27,-46.77 1069.1,-41.96 1082.33,-37.38"/>
<polygon fill="red" stroke="red" stroke-width="0.21" points="1083.65,-40.62 1091.88,-33.95 1081.29,-34.03 1083.65,-40.62"/>
</g>
<!-- z_score_MA_25_current -->
<g id="node7" class="node">
<title>z_score_MA_25_current</title>
<polygon fill="lightgray" stroke="black" points="512.57,-115.71 406.57,-115.71 406.57,-97.71 512.57,-97.71 512.57,-115.71"/>
<text text-anchor="middle" x="459.57" y="-104.51" font-family="Times,serif" font-size="9.00">z_score_MA_25_current</text>
</g>
<!-- z_score_MA_25_current&#45;&gt;Sell -->
<g id="edge19" class="edge">
<title>z_score_MA_25_current&#45;&gt;Sell</title>
<path fill="none" stroke="red" stroke-width="0.76" d="M481.17,-97.7C493.21,-93.51 508.56,-88.61 522.57,-85.5 565.2,-76.02 861.57,-40.87 959.35,-29.4"/>
<polygon fill="red" stroke="red" stroke-width="0.76" points="959.96,-32.85 969.49,-28.21 959.15,-25.9 959.96,-32.85"/>
</g>
<!-- z_score_MA_25_current&#45;&gt;Hold -->
<g id="edge20" class="edge">
<title>z_score_MA_25_current&#45;&gt;Hold</title>
<path fill="none" stroke="red" stroke-width="0.27" d="M483.73,-97.71C495.43,-93.9 509.69,-89.34 522.57,-85.5 586.81,-66.32 662.42,-45.89 705,-34.58"/>
<polygon fill="red" stroke="red" stroke-width="0.27" points="706.06,-37.92 714.83,-31.98 704.27,-31.16 706.06,-37.92"/>
</g>
<!-- z_score_MA_25_current&#45;&gt;Buy -->
<g id="edge21" class="edge">
<title>z_score_MA_25_current&#45;&gt;Buy</title>
<path fill="none" stroke="green" stroke-width="0.27" d="M480.24,-97.69C492.38,-93.33 508.13,-88.28 522.57,-85.5 748.32,-42.07 812.82,-92.94 1038.57,-49.5 1053.14,-46.69 1068.85,-41.92 1082.03,-37.38"/>
<polygon fill="green" stroke="green" stroke-width="0.27" points="1083.3,-40.64 1091.55,-33.99 1080.96,-34.04 1083.3,-40.64"/>
</g>
<!-- z_score_MA_10_current -->
<g id="node8" class="node">
<title>z_score_MA_10_current</title>
<polygon fill="lightgray" stroke="black" points="1810.57,-181.92 1704.57,-181.92 1704.57,-163.92 1810.57,-163.92 1810.57,-181.92"/>
<text text-anchor="middle" x="1757.57" y="-170.72" font-family="Times,serif" font-size="9.00">z_score_MA_10_current</text>
</g>
<!-- z_score_MA_10_current&#45;&gt;Sell -->
<g id="edge22" class="edge">
<title>z_score_MA_10_current&#45;&gt;Sell</title>
<path fill="none" stroke="green" stroke-width="0.51" d="M1748.29,-163.83C1727.08,-145.87 1672.67,-102.92 1618.57,-85.5 1390.46,-12.04 1317.06,-88.25 1080.57,-49.5 1060.18,-46.16 1037.69,-40.23 1020.3,-35.13"/>
<polygon fill="green" stroke="green" stroke-width="0.51" points="1021.29,-31.77 1010.71,-32.25 1019.28,-38.47 1021.29,-31.77"/>
</g>
<!-- z_score_MA_10_current&#45;&gt;Hold -->
<g id="edge23" class="edge">
<title>z_score_MA_10_current&#45;&gt;Hold</title>
<path fill="none" stroke="green" stroke-width="0.3" d="M1704.24,-170.97C1426.04,-165.96 153.54,-142.27 139.57,-127.92 126.42,-114.41 126.92,-99.48 139.57,-85.5 177.57,-43.52 580.48,-29.8 703.26,-26.57"/>
<polygon fill="green" stroke="green" stroke-width="0.3" points="703.68,-30.06 713.59,-26.31 703.51,-23.07 703.68,-30.06"/>
</g>
<!-- z_score_MA_10_current&#45;&gt;Buy -->
<g id="edge24" class="edge">
<title>z_score_MA_10_current&#45;&gt;Buy</title>
<path fill="none" stroke="red" stroke-width="0.36" stroke-dasharray="1,5" d="M1774.23,-163.9C1787.34,-156.56 1804.68,-144.35 1812.57,-127.92 1820.74,-110.93 1825.33,-99.39 1812.57,-85.5 1766.98,-35.85 1278.27,-27.39 1145.63,-26.01"/>
<polygon fill="red" stroke="red" stroke-width="0.36" points="1145.33,-22.51 1135.3,-25.91 1145.27,-29.51 1145.33,-22.51"/>
</g>
<!-- 931 -->
<g id="node23" class="node">
<title>931</title>
<ellipse fill="white" stroke="black" cx="1782.57" cy="-106.71" rx="21.43" ry="21.43"/>
<text text-anchor="middle" x="1782.57" y="-104.51" font-family="Times,serif" font-size="9.00">931</text>
</g>
<!-- z_score_MA_10_current&#45;&gt;931 -->
<g id="edge63" class="edge">
<title>z_score_MA_10_current&#45;&gt;931</title>
<path fill="none" stroke="green" stroke-width="0.16" d="M1760.74,-163.79C1763.47,-156.78 1767.57,-146.24 1771.49,-136.17"/>
<polygon fill="green" stroke="green" stroke-width="0.16" points="1774.77,-137.39 1775.14,-126.8 1768.25,-134.85 1774.77,-137.39"/>
</g>
<!-- z_score_MA_5_current -->
<g id="node9" class="node">
<title>z_score_MA_5_current</title>
<polygon fill="lightgray" stroke="black" points="632.07,-115.71 531.07,-115.71 531.07,-97.71 632.07,-97.71 632.07,-115.71"/>
<text text-anchor="middle" x="581.57" y="-104.51" font-family="Times,serif" font-size="9.00">z_score_MA_5_current</text>
</g>
<!-- z_score_MA_5_current&#45;&gt;Sell -->
<g id="edge25" class="edge">
<title>z_score_MA_5_current&#45;&gt;Sell</title>
<path fill="none" stroke="green" stroke-width="0.14" d="M602.71,-97.69C614.1,-93.6 628.46,-88.81 641.57,-85.5 757.12,-56.33 897.8,-37.08 959.29,-29.45"/>
<polygon fill="green" stroke="green" stroke-width="0.14" points="959.98,-32.89 969.49,-28.2 959.13,-25.94 959.98,-32.89"/>
</g>
<!-- z_score_MA_5_current&#45;&gt;Hold -->
<g id="edge26" class="edge">
<title>z_score_MA_5_current&#45;&gt;Hold</title>
<path fill="none" stroke="green" stroke-width="0.16" d="M597.49,-97.6C623.25,-84.49 674.51,-58.38 707.63,-41.51"/>
<polygon fill="green" stroke="green" stroke-width="0.16" points="709.55,-44.46 716.87,-36.8 706.37,-38.22 709.55,-44.46"/>
</g>
<!-- z_score_MA_5_current&#45;&gt;Buy -->
<g id="edge27" class="edge">
<title>z_score_MA_5_current&#45;&gt;Buy</title>
<path fill="none" stroke="green" stroke-width="0.38" d="M601.52,-97.68C613.04,-93.37 627.91,-88.38 641.57,-85.5 814.93,-48.97 864.95,-84.78 1038.57,-49.5 1053.11,-46.54 1068.82,-41.74 1082,-37.23"/>
<polygon fill="green" stroke="green" stroke-width="0.38" points="1083.26,-40.5 1091.53,-33.87 1080.93,-33.9 1083.26,-40.5"/>
</g>
<!-- z_score_lagged -->
<g id="node10" class="node">
<title>z_score_lagged</title>
<polygon fill="lightgray" stroke="black" points="549.07,-181.92 478.07,-181.92 478.07,-163.92 549.07,-163.92 549.07,-181.92"/>
<text text-anchor="middle" x="513.57" y="-170.72" font-family="Times,serif" font-size="9.00">z_score_lagged</text>
</g>
<!-- z_score_lagged&#45;&gt;Sell -->
<g id="edge28" class="edge">
<title>z_score_lagged&#45;&gt;Sell</title>
<path fill="none" stroke="red" stroke-width="0.28" stroke-dasharray="1,5" d="M549.26,-170.93C651.57,-167.74 940.6,-156.28 971.57,-127.92 991.07,-110.07 994.47,-79.17 993.82,-56.01"/>
<polygon fill="red" stroke="red" stroke-width="0.28" points="997.31,-55.79 993.27,-46 990.32,-56.17 997.31,-55.79"/>
</g>
<!-- z_score_lagged&#45;&gt;Hold -->
<g id="edge29" class="edge">
<title>z_score_lagged&#45;&gt;Hold</title>
<path fill="none" stroke="red" stroke-width="0.3" d="M477.98,-171.53C368.33,-169.95 41.14,-162.36 9.57,-127.92 -3.17,-114.02 -3.21,-99.36 9.57,-85.5 57.06,-33.96 564.71,-26.88 703.61,-25.9"/>
<polygon fill="red" stroke="red" stroke-width="0.3" points="703.72,-29.4 713.7,-25.84 703.68,-22.4 703.72,-29.4"/>
</g>
<!-- z_score_lagged&#45;&gt;Buy -->
<g id="edge30" class="edge">
<title>z_score_lagged&#45;&gt;Buy</title>
<path fill="none" stroke="green" stroke-width="0.33" d="M549.37,-171.15C735.2,-167.05 1581.94,-147.33 1600.57,-127.92 1613.63,-114.32 1613.07,-99.62 1600.57,-85.5 1570.32,-51.32 1249.92,-32.54 1145.36,-27.29"/>
<polygon fill="green" stroke="green" stroke-width="0.33" points="1145.54,-23.8 1135.38,-26.8 1145.19,-30.79 1145.54,-23.8"/>
</g>
<!-- z_score_lagged&#45;&gt;84 -->
<g id="edge60" class="edge">
<title>z_score_lagged&#45;&gt;84</title>
<path fill="none" stroke="green" stroke-width="0.43" d="M477.93,-170.52C386.26,-166.57 144.19,-153.91 68.57,-127.92 65.56,-126.89 62.54,-125.52 59.63,-123.99"/>
<polygon fill="green" stroke="green" stroke-width="0.43" points="61.19,-120.84 50.81,-118.7 57.59,-126.85 61.19,-120.84"/>
</g>
<!-- z_score_differenced -->
<g id="node11" class="node">
<title>z_score_differenced</title>
<polygon fill="lightgray" stroke="black" points="1495.57,-115.71 1407.57,-115.71 1407.57,-97.71 1495.57,-97.71 1495.57,-115.71"/>
<text text-anchor="middle" x="1451.57" y="-104.51" font-family="Times,serif" font-size="9.00">z_score_differenced</text>
</g>
<!-- z_score_differenced&#45;&gt;Sell -->
<g id="edge31" class="edge">
<title>z_score_differenced&#45;&gt;Sell</title>
<path fill="none" stroke="green" stroke-width="0.64" d="M1433.78,-97.64C1423.66,-93.37 1410.63,-88.43 1398.57,-85.5 1260.36,-51.89 1220.37,-75.71 1080.57,-49.5 1060.26,-45.69 1037.78,-39.76 1020.37,-34.78"/>
<polygon fill="green" stroke="green" stroke-width="0.64" points="1021.33,-31.41 1010.75,-31.98 1019.38,-38.13 1021.33,-31.41"/>
</g>
<!-- z_score_differenced&#45;&gt;Hold -->
<g id="edge32" class="edge">
<title>z_score_differenced&#45;&gt;Hold</title>
<path fill="none" stroke="red" stroke-width="0.18" d="M1434.29,-97.7C1424.11,-93.34 1410.86,-88.29 1398.57,-85.5 1208.09,-42.27 1155.03,-67.89 960.57,-49.5 894.26,-43.23 816.95,-34.67 773.28,-29.73"/>
<polygon fill="red" stroke="red" stroke-width="0.18" points="773.52,-26.23 763.19,-28.58 772.73,-33.19 773.52,-26.23"/>
</g>
<!-- z_score_differenced&#45;&gt;Buy -->
<g id="edge33" class="edge">
<title>z_score_differenced&#45;&gt;Buy</title>
<path fill="none" stroke="red" stroke-width="0.22" d="M1432.69,-97.67C1422.68,-93.63 1410.1,-88.88 1398.57,-85.5 1308.22,-59.01 1198.52,-39.52 1145.04,-30.81"/>
<polygon fill="red" stroke="red" stroke-width="0.22" points="1145.55,-27.34 1135.12,-29.21 1144.44,-34.25 1145.55,-27.34"/>
</g>
<!-- z_score_MSTD_10 -->
<g id="node12" class="node">
<title>z_score_MSTD_10</title>
<polygon fill="lightgray" stroke="black" points="832.07,-115.71 745.07,-115.71 745.07,-97.71 832.07,-97.71 832.07,-115.71"/>
<text text-anchor="middle" x="788.57" y="-104.51" font-family="Times,serif" font-size="9.00">z_score_MSTD_10</text>
</g>
<!-- z_score_MSTD_10&#45;&gt;Sell -->
<g id="edge34" class="edge">
<title>z_score_MSTD_10&#45;&gt;Sell</title>
<path fill="none" stroke="red" stroke-width="0.36" d="M809.05,-97.6C845.1,-83.33 919.97,-53.7 961.41,-37.29"/>
<polygon fill="red" stroke="red" stroke-width="0.36" points="962.92,-40.46 970.93,-33.52 960.35,-33.95 962.92,-40.46"/>
</g>
<!-- z_score_MSTD_10&#45;&gt;Hold -->
<g id="edge35" class="edge">
<title>z_score_MSTD_10&#45;&gt;Hold</title>
<path fill="none" stroke="green" stroke-width="0.43" d="M783.41,-97.45C777.15,-87.45 766.27,-70.04 756.79,-54.88"/>
<polygon fill="green" stroke="green" stroke-width="0.43" points="759.69,-52.92 751.42,-46.29 753.75,-56.63 759.69,-52.92"/>
</g>
<!-- z_score_MSTD_10&#45;&gt;Buy -->
<g id="edge36" class="edge">
<title>z_score_MSTD_10&#45;&gt;Buy</title>
<path fill="none" stroke="green" stroke-width="0.24" d="M807.42,-97.55C817.42,-93.47 830,-88.73 841.57,-85.5 927.29,-61.54 952.24,-71.14 1038.57,-49.5 1052.96,-45.89 1068.65,-41 1081.85,-36.59"/>
<polygon fill="green" stroke="green" stroke-width="0.24" points="1083.07,-39.88 1091.41,-33.35 1080.82,-33.25 1083.07,-39.88"/>
</g>
<!-- bb_upper -->
<g id="node13" class="node">
<title>bb_upper</title>
<polygon fill="lightgray" stroke="black" points="962.57,-115.71 912.57,-115.71 912.57,-97.71 962.57,-97.71 962.57,-115.71"/>
<text text-anchor="middle" x="937.57" y="-104.51" font-family="Times,serif" font-size="9.00">bb_upper</text>
</g>
<!-- bb_upper&#45;&gt;Sell -->
<g id="edge37" class="edge">
<title>bb_upper&#45;&gt;Sell</title>
<path fill="none" stroke="green" stroke-width="0.23" stroke-dasharray="1,5" d="M943.04,-97.45C950.23,-86.61 963.17,-67.09 973.74,-51.15"/>
<polygon fill="green" stroke="green" stroke-width="0.23" points="976.7,-53 979.31,-42.74 970.87,-49.14 976.7,-53"/>
</g>
<!-- bb_upper&#45;&gt;Hold -->
<g id="edge38" class="edge">
<title>bb_upper&#45;&gt;Hold</title>
<path fill="none" stroke="green" stroke-width="0.25" d="M925.29,-97.64C918.96,-93.68 911.02,-89.02 903.57,-85.5 859.4,-64.6 805.8,-46.43 771.93,-35.78"/>
<polygon fill="green" stroke="green" stroke-width="0.25" points="772.67,-32.34 762.09,-32.72 770.6,-39.03 772.67,-32.34"/>
</g>
<!-- bb_upper&#45;&gt;Buy -->
<g id="edge39" class="edge">
<title>bb_upper&#45;&gt;Buy</title>
<path fill="none" stroke="green" stroke-width="0.5" d="M955.31,-97.6C985.39,-83.86 1046.65,-55.87 1083.2,-39.17"/>
<polygon fill="green" stroke="green" stroke-width="0.5" points="1084.73,-42.32 1092.37,-34.98 1081.82,-35.95 1084.73,-42.32"/>
</g>
<!-- bb_lower -->
<g id="node14" class="node">
<title>bb_lower</title>
<polygon fill="lightgray" stroke="black" points="1068.57,-115.71 1018.57,-115.71 1018.57,-97.71 1068.57,-97.71 1068.57,-115.71"/>
<text text-anchor="middle" x="1043.57" y="-104.51" font-family="Times,serif" font-size="9.00">bb_lower</text>
</g>
<!-- bb_lower&#45;&gt;Sell -->
<g id="edge40" class="edge">
<title>bb_lower&#45;&gt;Sell</title>
<path fill="none" stroke="red" stroke-width="0.4" d="M1038.1,-97.45C1030.91,-86.61 1017.97,-67.09 1007.4,-51.15"/>
<polygon fill="red" stroke="red" stroke-width="0.4" points="1010.27,-49.14 1001.83,-42.74 1004.44,-53 1010.27,-49.14"/>
</g>
<!-- bb_lower&#45;&gt;Hold -->
<g id="edge41" class="edge">
<title>bb_lower&#45;&gt;Hold</title>
<path fill="none" stroke="green" stroke-width="0.24" d="M1018.29,-98.46C1004.5,-94.55 987.12,-89.67 971.57,-85.5 900.85,-66.51 817.7,-45.5 772.33,-34.15"/>
<polygon fill="green" stroke="green" stroke-width="0.24" points="772.98,-30.71 762.43,-31.68 771.29,-37.5 772.98,-30.71"/>
</g>
<!-- bb_lower&#45;&gt;Buy -->
<g id="edge42" class="edge">
<title>bb_lower&#45;&gt;Buy</title>
<path fill="none" stroke="green" stroke-width="0.41" d="M1050.7,-97.45C1060.2,-86.45 1077.43,-66.48 1091.29,-50.41"/>
<polygon fill="green" stroke="green" stroke-width="0.41" points="1094.3,-52.28 1098.18,-42.42 1089,-47.71 1094.3,-52.28"/>
</g>
<!-- bb_signal -->
<g id="node15" class="node">
<title>bb_signal</title>
<polygon fill="lightgray" stroke="black" points="1138.07,-115.71 1087.07,-115.71 1087.07,-97.71 1138.07,-97.71 1138.07,-115.71"/>
<text text-anchor="middle" x="1112.57" y="-104.51" font-family="Times,serif" font-size="9.00">bb_signal</text>
</g>
<!-- bb_signal&#45;&gt;Sell -->
<g id="edge43" class="edge">
<title>bb_signal&#45;&gt;Sell</title>
<path fill="none" stroke="green" stroke-width="0.42" d="M1099.97,-97.45C1080.37,-84.6 1042.15,-59.55 1016.48,-42.73"/>
<polygon fill="green" stroke="green" stroke-width="0.42" points="1018.26,-39.71 1007.98,-37.16 1014.42,-45.57 1018.26,-39.71"/>
</g>
<!-- bb_signal&#45;&gt;Hold -->
<g id="edge44" class="edge">
<title>bb_signal&#45;&gt;Hold</title>
<path fill="none" stroke="red" stroke-width="0.14" d="M1101.09,-97.71C1094.49,-93.47 1085.88,-88.52 1077.57,-85.5 971.13,-46.75 836.48,-32.63 773.73,-27.91"/>
<polygon fill="red" stroke="red" stroke-width="0.14" points="773.81,-24.4 763.59,-27.18 773.31,-31.38 773.81,-24.4"/>
</g>
<!-- bb_signal&#45;&gt;Buy -->
<g id="edge45" class="edge">
<title>bb_signal&#45;&gt;Buy</title>
<path fill="none" stroke="red" stroke-width="0.16" d="M1112.57,-97.45C1112.57,-88.08 1112.57,-72.21 1112.57,-57.78"/>
<polygon fill="red" stroke="red" stroke-width="0.16" points="1116.07,-57.63 1112.57,-47.64 1109.07,-57.64 1116.07,-57.63"/>
</g>
<!-- rsi -->
<g id="node16" class="node">
<title>rsi</title>
<polygon fill="lightgray" stroke="black" points="174.57,-115.71 148.57,-115.71 148.57,-97.71 174.57,-97.71 174.57,-115.71"/>
<text text-anchor="middle" x="161.57" y="-104.51" font-family="Times,serif" font-size="9.00">rsi</text>
</g>
<!-- rsi&#45;&gt;Sell -->
<g id="edge46" class="edge">
<title>rsi&#45;&gt;Sell</title>
<path fill="none" stroke="green" stroke-width="0.2" d="M167.99,-97.55C171.96,-93.14 177.46,-88.09 183.57,-85.5 307.97,-32.73 655.98,-61.47 790.57,-49.5 850.55,-44.16 920.34,-35.26 959.6,-30"/>
<polygon fill="green" stroke="green" stroke-width="0.2" points="960.15,-33.46 969.59,-28.65 959.22,-26.52 960.15,-33.46"/>
</g>
<!-- rsi&#45;&gt;Hold -->
<g id="edge47" class="edge">
<title>rsi&#45;&gt;Hold</title>
<path fill="none" stroke="green" stroke-width="0.12" d="M168.04,-97.66C172.02,-93.29 177.52,-88.24 183.57,-85.5 277.24,-43.08 596.99,-29.93 703.63,-26.67"/>
<polygon fill="green" stroke="green" stroke-width="0.12" points="703.96,-30.16 713.85,-26.37 703.75,-23.17 703.96,-30.16"/>
</g>
<!-- macd -->
<g id="node17" class="node">
<title>macd</title>
<polygon fill="lightgray" stroke="black" points="1191.07,-115.71 1156.07,-115.71 1156.07,-97.71 1191.07,-97.71 1191.07,-115.71"/>
<text text-anchor="middle" x="1173.57" y="-104.51" font-family="Times,serif" font-size="9.00">macd</text>
</g>
<!-- macd&#45;&gt;Sell -->
<g id="edge48" class="edge">
<title>macd&#45;&gt;Sell</title>
<path fill="none" stroke="green" stroke-width="0.5" d="M1164.42,-97.5C1159.64,-93.51 1153.55,-88.86 1147.57,-85.5 1105.82,-62.02 1053.03,-44.08 1020.54,-34.23"/>
<polygon fill="green" stroke="green" stroke-width="0.5" points="1021.33,-30.81 1010.75,-31.32 1019.33,-37.52 1021.33,-30.81"/>
</g>
<!-- macd&#45;&gt;Hold -->
<g id="edge49" class="edge">
<title>macd&#45;&gt;Hold</title>
<path fill="none" stroke="green" stroke-width="0.85" d="M1165.16,-97.35C1160.4,-93.11 1154.09,-88.28 1147.57,-85.5 1113.29,-70.88 865.31,-40.64 773.04,-29.76"/>
<polygon fill="green" stroke="green" stroke-width="0.85" points="773.42,-26.28 763.08,-28.59 772.61,-33.23 773.42,-26.28"/>
</g>
<!-- macd&#45;&gt;Buy -->
<g id="edge50" class="edge">
<title>macd&#45;&gt;Buy</title>
<path fill="none" stroke="green" stroke-width="0.79" d="M1167.27,-97.45C1159.11,-86.75 1144.48,-67.57 1132.4,-51.74"/>
<polygon fill="green" stroke="green" stroke-width="0.79" points="1134.86,-49.19 1126.01,-43.37 1129.29,-53.44 1134.86,-49.19"/>
</g>
<!-- macd_signal -->
<g id="node18" class="node">
<title>macd_signal</title>
<polygon fill="lightgray" stroke="black" points="1270.07,-115.71 1209.07,-115.71 1209.07,-97.71 1270.07,-97.71 1270.07,-115.71"/>
<text text-anchor="middle" x="1239.57" y="-104.51" font-family="Times,serif" font-size="9.00">macd_signal</text>
</g>
<!-- macd_signal&#45;&gt;Sell -->
<g id="edge51" class="edge">
<title>macd_signal&#45;&gt;Sell</title>
<path fill="none" stroke="green" stroke-width="0.69" d="M1225.45,-97.52C1218.18,-93.52 1209.08,-88.87 1200.57,-85.5 1183.69,-78.8 1074.39,-48.64 1020.51,-33.91"/>
<polygon fill="green" stroke="green" stroke-width="0.69" points="1021.39,-30.52 1010.82,-31.26 1019.54,-37.27 1021.39,-30.52"/>
</g>
<!-- macd_signal&#45;&gt;Hold -->
<g id="edge52" class="edge">
<title>macd_signal&#45;&gt;Hold</title>
<path fill="none" stroke="green" stroke-width="0.51" stroke-dasharray="1,5" d="M1226.71,-97.59C1219.33,-93.31 1209.74,-88.37 1200.57,-85.5 1159.99,-72.79 874.21,-40.63 773.55,-29.56"/>
<polygon fill="green" stroke="green" stroke-width="0.51" points="773.63,-26.05 763.31,-28.44 772.87,-33.01 773.63,-26.05"/>
</g>
<!-- macd_signal&#45;&gt;Buy -->
<g id="edge53" class="edge">
<title>macd_signal&#45;&gt;Buy</title>
<path fill="none" stroke="green" stroke-width="0.32" stroke-dasharray="1,5" d="M1226.46,-97.45C1206.19,-84.69 1166.8,-59.89 1140.09,-43.07"/>
<polygon fill="green" stroke="green" stroke-width="0.32" points="1141.89,-40.07 1131.56,-37.71 1138.16,-46 1141.89,-40.07"/>
</g>
<!-- macd_signal_difference -->
<g id="node19" class="node">
<title>macd_signal_difference</title>
<polygon fill="lightgray" stroke="black" points="1389.07,-115.71 1288.07,-115.71 1288.07,-97.71 1389.07,-97.71 1389.07,-115.71"/>
<text text-anchor="middle" x="1338.57" y="-104.51" font-family="Times,serif" font-size="9.00">macd_signal_difference</text>
</g>
<!-- macd_signal_difference&#45;&gt;Sell -->
<g id="edge54" class="edge">
<title>macd_signal_difference&#45;&gt;Sell</title>
<path fill="none" stroke="green" stroke-width="0.68" d="M1317.51,-97.63C1306.35,-93.57 1292.36,-88.82 1279.57,-85.5 1192.59,-62.87 1168.31,-68.98 1080.57,-49.5 1060.39,-45.02 1037.91,-39.09 1020.47,-34.27"/>
<polygon fill="green" stroke="green" stroke-width="0.68" points="1021.41,-30.9 1010.83,-31.59 1019.53,-37.64 1021.41,-30.9"/>
</g>
<!-- macd_signal_difference&#45;&gt;Hold -->
<g id="edge55" class="edge">
<title>macd_signal_difference&#45;&gt;Hold</title>
<path fill="none" stroke="red" stroke-width="0.4" d="M1318.68,-97.67C1307.39,-93.42 1292.89,-88.48 1279.57,-85.5 1267.14,-82.72 891.36,-42.18 773.54,-29.51"/>
<polygon fill="red" stroke="red" stroke-width="0.4" points="773.6,-25.99 763.28,-28.4 772.85,-32.95 773.6,-25.99"/>
</g>
<!-- macd_signal_difference&#45;&gt;Buy -->
<g id="edge56" class="edge">
<title>macd_signal_difference&#45;&gt;Buy</title>
<path fill="none" stroke="red" stroke-width="0.42" d="M1315.66,-97.6C1274.78,-83.14 1189.27,-52.89 1143.33,-36.63"/>
<polygon fill="red" stroke="red" stroke-width="0.42" points="1144.48,-33.33 1133.89,-33.29 1142.15,-39.93 1144.48,-33.33"/>
</g>
<!-- Sell&#45;&gt;Sell -->
<g id="edge57" class="edge">
<title>Sell&#45;&gt;Sell</title>
<path fill="none" stroke="green" stroke-width="0.31" d="M1007.09,-38.28C1018.53,-42.39 1029.78,-37.87 1029.78,-24.75 1029.78,-15.73 1024.46,-10.77 1017.42,-9.89"/>
<polygon fill="green" stroke="green" stroke-width="0.31" points="1016.57,-6.47 1007.09,-11.21 1017.46,-13.42 1016.57,-6.47"/>
</g>
<!-- Hold&#45;&gt;Hold -->
<g id="edge58" class="edge">
<title>Hold&#45;&gt;Hold</title>
<path fill="none" stroke="green" stroke-width="0.1" d="M759.25,-39.03C770.74,-41.7 781.32,-36.94 781.32,-24.75 781.32,-16.37 776.32,-11.5 769.46,-10.14"/>
<polygon fill="green" stroke="green" stroke-width="0.1" points="769.13,-6.65 759.25,-10.47 769.35,-13.65 769.13,-6.65"/>
</g>
<!-- Buy&#45;&gt;Buy -->
<g id="edge59" class="edge">
<title>Buy&#45;&gt;Buy</title>
<path fill="none" stroke="red" stroke-width="0.15" stroke-dasharray="1,5" d="M1130.53,-38.56C1142.08,-42.17 1153.2,-37.56 1153.2,-24.75 1153.2,-15.94 1147.94,-11.01 1140.91,-9.96"/>
<polygon fill="red" stroke="red" stroke-width="0.15" points="1140.16,-6.52 1130.53,-10.94 1140.82,-13.49 1140.16,-6.52"/>
</g>
<!-- 931&#45;&gt;Buy -->
<g id="edge64" class="edge">
<title>931&#45;&gt;Buy</title>
<path fill="none" stroke="green" stroke-width="0.17" d="M1765.46,-93.87C1759.97,-90.62 1753.72,-87.46 1747.57,-85.5 1633.49,-49.11 1258.96,-31.56 1145.46,-26.99"/>
<polygon fill="green" stroke="green" stroke-width="0.17" points="1145.44,-23.49 1135.31,-26.59 1145.16,-30.48 1145.44,-23.49"/>
</g>
<!-- 84&#45;&gt;Hold -->
<g id="edge61" class="edge">
<title>84&#45;&gt;Hold</title>
<path fill="none" stroke="red" stroke-width="0.59" d="M50.8,-94.69C56.1,-91.15 62.35,-87.6 68.57,-85.5 188.17,-45.04 583.71,-30.3 703.74,-26.7"/>
<polygon fill="red" stroke="red" stroke-width="0.59" points="703.94,-30.19 713.83,-26.4 703.74,-23.2 703.94,-30.19"/>
</g>
</g>
</svg>
