<?xml version="1.0" encoding="UTF-8" standalone="no"?>
<!DOCTYPE svg PUBLIC "-//W3C//DTD SVG 1.1//EN"
 "http://www.w3.org/Graphics/SVG/1.1/DTD/svg11.dtd">
<!-- Generated by graphviz version 2.50.0 (0)
 -->
<!-- Pages: 1 -->
<svg width="2271pt" height="361pt"
 viewBox="0.00 0.00 2271.48 360.92" xmlns="http://www.w3.org/2000/svg" xmlns:xlink="http://www.w3.org/1999/xlink">
<g id="graph0" class="graph" transform="scale(1 1) rotate(0) translate(4 356.92)">
<polygon fill="white" stroke="transparent" points="-4,4 -4,-356.92 2267.48,-356.92 2267.48,4 -4,4"/>
<!-- z_score -->
<g id="node1" class="node">
<title>z_score</title>
<polygon fill="lightgray" stroke="black" points="959.43,-286.71 915.43,-286.71 915.43,-268.71 959.43,-268.71 959.43,-286.71"/>
<text text-anchor="middle" x="937.43" y="-275.51" font-family="Times,serif" font-size="9.00">z_score</text>
</g>
<!-- Sell -->
<g id="node20" class="node">
<title>Sell</title>
<ellipse fill="lightblue" stroke="black" cx="1052.43" cy="-24.75" rx="21.43" ry="21.43"/>
<text text-anchor="middle" x="1052.43" y="-22.55" font-family="Times,serif" font-size="9.00">Sell</text>
</g>
<!-- z_score&#45;&gt;Sell -->
<g id="edge1" class="edge">
<title>z_score&#45;&gt;Sell</title>
<path fill="none" stroke="green" stroke-width="0.74" d="M934.76,-268.71C929.19,-250.64 917.84,-205.56 930.43,-170.99 949.9,-117.54 998.65,-70.09 1028.3,-44.88"/>
<polygon fill="green" stroke="green" stroke-width="0.74" points="1030.67,-47.46 1036.11,-38.37 1026.19,-42.08 1030.67,-47.46"/>
</g>
<!-- Hold -->
<g id="node21" class="node">
<title>Hold</title>
<ellipse fill="lightblue" stroke="black" cx="1771.43" cy="-24.75" rx="25" ry="25"/>
<text text-anchor="middle" x="1771.43" y="-22.55" font-family="Times,serif" font-size="9.00">Hold</text>
</g>
<!-- z_score&#45;&gt;Hold -->
<g id="edge2" class="edge">
<title>z_score&#45;&gt;Hold</title>
<path fill="none" stroke="green" stroke-width="0.51" stroke-dasharray="1,5" d="M959.64,-276.13C1099.97,-272.42 1860.86,-250.98 1959.43,-220.49 2029.44,-198.83 2064.47,-198.85 2100.43,-134.99 2111.22,-115.83 2114.53,-102.39 2100.43,-85.5 2063.21,-40.91 1883.19,-29.52 1806.33,-26.67"/>
<polygon fill="green" stroke="green" stroke-width="0.51" points="1806.31,-23.17 1796.19,-26.33 1806.07,-30.17 1806.31,-23.17"/>
</g>
<!-- Buy -->
<g id="node22" class="node">
<title>Buy</title>
<ellipse fill="lightblue" stroke="black" cx="421.43" cy="-24.75" rx="22.76" ry="22.76"/>
<text text-anchor="middle" x="421.43" y="-22.55" font-family="Times,serif" font-size="9.00">Buy</text>
</g>
<!-- z_score&#45;&gt;Buy -->
<g id="edge3" class="edge">
<title>z_score&#45;&gt;Buy</title>
<path fill="none" stroke="red" stroke-width="0.72" d="M915.17,-277.1C786.81,-278.86 143.17,-280.28 31.43,-134.99 18.02,-117.56 17.1,-102.19 31.43,-85.5 77.48,-31.85 302.83,-25.87 388.39,-25.57"/>
<polygon fill="red" stroke="red" stroke-width="0.72" points="388.58,-29.07 398.58,-25.56 388.58,-22.07 388.58,-29.07"/>
</g>
<!-- 1791 -->
<g id="node28" class="node">
<title>1791</title>
<ellipse fill="white" stroke="black" cx="964.43" cy="-195.74" rx="25" ry="25"/>
<text text-anchor="middle" x="964.43" y="-193.54" font-family="Times,serif" font-size="9.00">1791</text>
</g>
<!-- z_score&#45;&gt;1791 -->
<g id="edge73" class="edge">
<title>z_score&#45;&gt;1791</title>
<path fill="none" stroke="green" stroke-width="0.13" d="M940.22,-268.45C943.37,-259.11 948.7,-243.33 953.55,-228.95"/>
<polygon fill="green" stroke="green" stroke-width="0.13" points="956.93,-229.9 956.81,-219.31 950.29,-227.67 956.93,-229.9"/>
</g>
<!-- z_score_MA_50 -->
<g id="node2" class="node">
<title>z_score_MA_50</title>
<polygon fill="lightgray" stroke="black" points="748.93,-204.74 671.93,-204.74 671.93,-186.74 748.93,-186.74 748.93,-204.74"/>
<text text-anchor="middle" x="710.43" y="-193.54" font-family="Times,serif" font-size="9.00">z_score_MA_50</text>
</g>
<!-- z_score_MA_50&#45;&gt;Sell -->
<g id="edge4" class="edge">
<title>z_score_MA_50&#45;&gt;Sell</title>
<path fill="none" stroke="red" stroke-width="0.33" d="M730.03,-186.64C752.65,-176.68 790.24,-158.2 817.43,-134.99 838.73,-116.82 833.31,-101.3 856.43,-85.5 907.76,-50.41 980.36,-35.38 1021.26,-29.38"/>
<polygon fill="red" stroke="red" stroke-width="0.33" points="1021.76,-32.84 1031.19,-28.01 1020.81,-25.91 1021.76,-32.84"/>
</g>
<!-- z_score_MA_50&#45;&gt;Hold -->
<g id="edge5" class="edge">
<title>z_score_MA_50&#45;&gt;Hold</title>
<path fill="none" stroke="red" stroke-width="0.13" d="M749.31,-189.78C793.21,-184.35 866.84,-175.79 930.43,-170.99 976.79,-167.5 1733.51,-167.82 1766.43,-134.99 1785.84,-115.64 1784.95,-83.37 1780.48,-58.91"/>
<polygon fill="red" stroke="red" stroke-width="0.13" points="1783.87,-58.03 1778.39,-48.96 1777.02,-59.47 1783.87,-58.03"/>
</g>
<!-- z_score_MA_50&#45;&gt;Buy -->
<g id="edge6" class="edge">
<title>z_score_MA_50&#45;&gt;Buy</title>
<path fill="none" stroke="red" stroke-width="0.44" d="M671.55,-191.97C548.36,-183 173.7,-154.23 156.43,-134.99 87.56,-58.3 303.64,-34.19 388.63,-27.79"/>
<polygon fill="red" stroke="red" stroke-width="0.44" points="389.06,-31.27 398.78,-27.06 388.56,-24.28 389.06,-31.27"/>
</g>
<!-- 739 -->
<g id="node23" class="node">
<title>739</title>
<ellipse fill="white" stroke="black" cx="186.43" cy="-110.25" rx="21.43" ry="21.43"/>
<text text-anchor="middle" x="186.43" y="-108.05" font-family="Times,serif" font-size="9.00">739</text>
</g>
<!-- z_score_MA_50&#45;&gt;739 -->
<g id="edge76" class="edge">
<title>z_score_MA_50&#45;&gt;739</title>
<path fill="none" stroke="red" stroke-width="0.18" d="M671.65,-191.07C563.44,-180.65 263.32,-150.71 221.43,-134.99 217.92,-133.68 214.42,-131.95 211.07,-130.01"/>
<polygon fill="red" stroke="red" stroke-width="0.18" points="212.92,-127.04 202.62,-124.58 209.14,-132.93 212.92,-127.04"/>
</g>
<!-- z_score_MA_25 -->
<g id="node3" class="node">
<title>z_score_MA_25</title>
<polygon fill="lightgray" stroke="black" points="492.93,-119.25 415.93,-119.25 415.93,-101.25 492.93,-101.25 492.93,-119.25"/>
<text text-anchor="middle" x="454.43" y="-108.05" font-family="Times,serif" font-size="9.00">z_score_MA_25</text>
</g>
<!-- z_score_MA_25&#45;&gt;Sell -->
<g id="edge7" class="edge">
<title>z_score_MA_25&#45;&gt;Sell</title>
<path fill="none" stroke="red" stroke-width="0.23" d="M467.77,-101.05C477.13,-95.71 490.11,-89.09 502.43,-85.5 693.64,-29.72 935.99,-25.1 1021.14,-25.36"/>
<polygon fill="red" stroke="red" stroke-width="0.23" points="1021.17,-28.86 1031.19,-25.42 1021.21,-21.86 1021.17,-28.86"/>
</g>
<!-- z_score_MA_25&#45;&gt;Buy -->
<g id="edge8" class="edge">
<title>z_score_MA_25&#45;&gt;Buy</title>
<path fill="none" stroke="green" stroke-width="0.19" d="M451.27,-101.24C447.15,-90.83 439.73,-72.06 433.32,-55.84"/>
<polygon fill="green" stroke="green" stroke-width="0.19" points="436.43,-54.18 429.5,-46.16 429.92,-56.75 436.43,-54.18"/>
</g>
<!-- z_score_MA_10 -->
<g id="node4" class="node">
<title>z_score_MA_10</title>
<polygon fill="lightgray" stroke="black" points="808.93,-119.25 731.93,-119.25 731.93,-101.25 808.93,-101.25 808.93,-119.25"/>
<text text-anchor="middle" x="770.43" y="-108.05" font-family="Times,serif" font-size="9.00">z_score_MA_10</text>
</g>
<!-- z_score_MA_10&#45;&gt;Sell -->
<g id="edge9" class="edge">
<title>z_score_MA_10&#45;&gt;Sell</title>
<path fill="none" stroke="green" stroke-width="0.18" d="M786.85,-101.04C797.18,-96.09 810.87,-89.91 823.43,-85.5 892.86,-61.07 977.26,-41.57 1021.67,-32.07"/>
<polygon fill="green" stroke="green" stroke-width="0.18" points="1022.5,-35.47 1031.56,-29.98 1021.05,-28.62 1022.5,-35.47"/>
</g>
<!-- z_score_MA_10&#45;&gt;Hold -->
<g id="edge10" class="edge">
<title>z_score_MA_10&#45;&gt;Hold</title>
<path fill="none" stroke="green" stroke-width="0.12" d="M794.6,-101.15C811.67,-95.78 835.2,-89.08 856.43,-85.5 1195.45,-28.24 1613.71,-25.07 1736.2,-25.47"/>
<polygon fill="green" stroke="green" stroke-width="0.12" points="1736.45,-28.98 1746.47,-25.52 1736.48,-21.98 1736.45,-28.98"/>
</g>
<!-- z_score_MA_10&#45;&gt;Buy -->
<g id="edge11" class="edge">
<title>z_score_MA_10&#45;&gt;Buy</title>
<path fill="none" stroke="red" stroke-width="0.17" d="M742.63,-101.22C725.83,-96.46 703.96,-90.41 684.43,-85.5 601.55,-64.65 503.16,-43.16 453.51,-32.54"/>
<polygon fill="red" stroke="red" stroke-width="0.17" points="454.19,-29.1 443.68,-30.44 452.73,-35.95 454.19,-29.1"/>
</g>
<!-- z_score_MA_5 -->
<g id="node5" class="node">
<title>z_score_MA_5</title>
<polygon fill="lightgray" stroke="black" points="937.43,-119.25 865.43,-119.25 865.43,-101.25 937.43,-101.25 937.43,-119.25"/>
<text text-anchor="middle" x="901.43" y="-108.05" font-family="Times,serif" font-size="9.00">z_score_MA_5</text>
</g>
<!-- z_score_MA_5&#45;&gt;Sell -->
<g id="edge12" class="edge">
<title>z_score_MA_5&#45;&gt;Sell</title>
<path fill="none" stroke="green" stroke-width="0.81" d="M915.91,-101.24C941.03,-87.35 993.1,-58.56 1025.17,-40.82"/>
<polygon fill="green" stroke="green" stroke-width="0.81" points="1026.98,-43.82 1034.04,-35.92 1023.59,-37.69 1026.98,-43.82"/>
</g>
<!-- z_score_MA_5&#45;&gt;Hold -->
<g id="edge13" class="edge">
<title>z_score_MA_5&#45;&gt;Hold</title>
<path fill="none" stroke="green" stroke-width="0.24" d="M936.72,-101.21C960.76,-96.01 993.37,-89.49 1022.43,-85.5 1296.05,-47.86 1629.41,-31.61 1736.53,-27.11"/>
<polygon fill="green" stroke="green" stroke-width="0.24" points="1736.9,-30.6 1746.75,-26.69 1736.61,-23.61 1736.9,-30.6"/>
</g>
<!-- z_score_MA_5&#45;&gt;Buy -->
<g id="edge14" class="edge">
<title>z_score_MA_5&#45;&gt;Buy</title>
<path fill="none" stroke="red" stroke-width="0.51" d="M876.27,-101.24C859.69,-96.18 837.43,-89.82 817.43,-85.5 683.89,-56.67 522.06,-36.89 454.03,-29.26"/>
<polygon fill="red" stroke="red" stroke-width="0.51" points="454.26,-25.76 443.94,-28.14 453.49,-32.72 454.26,-25.76"/>
</g>
<!-- z_score_MA_50_current -->
<g id="node6" class="node">
<title>z_score_MA_50_current</title>
<polygon fill="lightgray" stroke="black" points="1371.43,-119.25 1265.43,-119.25 1265.43,-101.25 1371.43,-101.25 1371.43,-119.25"/>
<text text-anchor="middle" x="1318.43" y="-108.05" font-family="Times,serif" font-size="9.00">z_score_MA_50_current</text>
</g>
<!-- z_score_MA_50_current&#45;&gt;Sell -->
<g id="edge15" class="edge">
<title>z_score_MA_50_current&#45;&gt;Sell</title>
<path fill="none" stroke="green" stroke-width="0.25" stroke-dasharray="1,5" d="M1296.49,-101.17C1283.45,-96.44 1266.56,-90.45 1251.43,-85.5 1191.79,-65.99 1121.32,-45.4 1082.27,-34.21"/>
<polygon fill="green" stroke="green" stroke-width="0.25" points="1083.16,-30.83 1072.59,-31.45 1081.24,-37.56 1083.16,-30.83"/>
</g>
<!-- z_score_MA_50_current&#45;&gt;Hold -->
<g id="edge16" class="edge">
<title>z_score_MA_50_current&#45;&gt;Hold</title>
<path fill="none" stroke="red" stroke-width="0.7" d="M1349.84,-101.23C1369.48,-96.35 1395.35,-90.19 1418.43,-85.5 1534.46,-61.93 1673.25,-40.35 1736.7,-30.85"/>
<polygon fill="red" stroke="red" stroke-width="0.7" points="1737.56,-34.27 1746.93,-29.33 1736.53,-27.34 1737.56,-34.27"/>
</g>
<!-- z_score_MA_50_current&#45;&gt;Buy -->
<g id="edge17" class="edge">
<title>z_score_MA_50_current&#45;&gt;Buy</title>
<path fill="none" stroke="red" stroke-width="0.49" d="M1289.79,-101.17C1269.92,-95.88 1242.76,-89.27 1218.43,-85.5 924.18,-39.82 563.18,-28.74 454.13,-26.35"/>
<polygon fill="red" stroke="red" stroke-width="0.49" points="454.15,-22.85 444.08,-26.14 454.01,-29.85 454.15,-22.85"/>
</g>
<!-- z_score_MA_25_current -->
<g id="node7" class="node">
<title>z_score_MA_25_current</title>
<polygon fill="lightgray" stroke="black" points="1950.43,-204.74 1844.43,-204.74 1844.43,-186.74 1950.43,-186.74 1950.43,-204.74"/>
<text text-anchor="middle" x="1897.43" y="-193.54" font-family="Times,serif" font-size="9.00">z_score_MA_25_current</text>
</g>
<!-- z_score_MA_25_current&#45;&gt;Sell -->
<g id="edge18" class="edge">
<title>z_score_MA_25_current&#45;&gt;Sell</title>
<path fill="none" stroke="green" stroke-width="0.32" d="M1844.24,-193.22C1735.1,-189.29 1490.06,-176.02 1418.43,-134.99 1394.36,-121.21 1404.1,-99.95 1380.43,-85.5 1330.62,-55.09 1155.77,-35.51 1083.77,-28.57"/>
<polygon fill="green" stroke="green" stroke-width="0.32" points="1083.81,-25.06 1073.53,-27.6 1083.15,-32.03 1083.81,-25.06"/>
</g>
<!-- z_score_MA_25_current&#45;&gt;Hold -->
<g id="edge19" class="edge">
<title>z_score_MA_25_current&#45;&gt;Hold</title>
<path fill="none" stroke="green" stroke-width="0.47" d="M1950.71,-193.46C1993.73,-189.26 2051.81,-175.75 2081.43,-134.99 2094.36,-117.2 2095.44,-102.46 2081.43,-85.5 2046.84,-43.6 1879.91,-30.76 1806.36,-27.1"/>
<polygon fill="green" stroke="green" stroke-width="0.47" points="1806.36,-23.6 1796.21,-26.63 1806.03,-30.59 1806.36,-23.6"/>
</g>
<!-- z_score_MA_25_current&#45;&gt;Buy -->
<g id="edge20" class="edge">
<title>z_score_MA_25_current&#45;&gt;Buy</title>
<path fill="none" stroke="red" stroke-width="0.46" d="M1844.32,-190.81C1772.32,-185.6 1639.73,-176.44 1526.43,-170.99 1464.25,-168.01 449.74,-179.72 406.43,-134.99 385.97,-113.87 395.47,-78.76 406.33,-54.06"/>
<polygon fill="red" stroke="red" stroke-width="0.46" points="409.58,-55.37 410.67,-44.83 403.25,-52.39 409.58,-55.37"/>
</g>
<!-- 592 -->
<g id="node25" class="node">
<title>592</title>
<ellipse fill="white" stroke="black" cx="2051.43" cy="-110.25" rx="21.43" ry="21.43"/>
<text text-anchor="middle" x="2051.43" y="-108.05" font-family="Times,serif" font-size="9.00">592</text>
</g>
<!-- z_score_MA_25_current&#45;&gt;592 -->
<g id="edge72" class="edge">
<title>z_score_MA_25_current&#45;&gt;592</title>
<path fill="none" stroke="red" stroke-width="0.44" d="M1915.15,-186.73C1938.74,-175.87 1981.54,-155.47 2016.43,-134.99 2019.66,-133.1 2022.99,-131.02 2026.26,-128.9"/>
<polygon fill="red" stroke="red" stroke-width="0.44" points="2028.26,-131.77 2034.63,-123.3 2024.37,-125.95 2028.26,-131.77"/>
</g>
<!-- z_score_MA_10_current -->
<g id="node8" class="node">
<title>z_score_MA_10_current</title>
<polygon fill="lightgray" stroke="black" points="1517.43,-204.74 1411.43,-204.74 1411.43,-186.74 1517.43,-186.74 1517.43,-204.74"/>
<text text-anchor="middle" x="1464.43" y="-193.54" font-family="Times,serif" font-size="9.00">z_score_MA_10_current</text>
</g>
<!-- z_score_MA_10_current&#45;&gt;Sell -->
<g id="edge21" class="edge">
<title>z_score_MA_10_current&#45;&gt;Sell</title>
<path fill="none" stroke="red" stroke-width="0.22" d="M1411.38,-188.88C1366.84,-181.88 1303.17,-166.82 1256.43,-134.99 1233.51,-119.38 1240.83,-101.85 1218.43,-85.5 1177.07,-55.29 1118.92,-39.06 1083.56,-31.43"/>
<polygon fill="red" stroke="red" stroke-width="0.22" points="1083.86,-27.91 1073.36,-29.33 1082.45,-34.77 1083.86,-27.91"/>
</g>
<!-- z_score_MA_10_current&#45;&gt;Hold -->
<g id="edge22" class="edge">
<title>z_score_MA_10_current&#45;&gt;Hold</title>
<path fill="none" stroke="green" stroke-width="0.25" d="M1517.5,-192.5C1642.67,-186.66 1948.11,-169.04 1978.43,-134.99 1993.06,-118.57 1991.65,-103.08 1978.43,-85.5 1957.67,-57.89 1859.12,-39.02 1805.84,-30.65"/>
<polygon fill="green" stroke="green" stroke-width="0.25" points="1806.23,-27.17 1795.82,-29.11 1805.17,-34.09 1806.23,-27.17"/>
</g>
<!-- z_score_MA_10_current&#45;&gt;Buy -->
<g id="edge23" class="edge">
<title>z_score_MA_10_current&#45;&gt;Buy</title>
<path fill="none" stroke="green" stroke-width="0.72" d="M1418.28,-186.74C1385.5,-181.38 1340.4,-174.65 1300.43,-170.99 1249.11,-166.3 409.16,-172.14 373.43,-134.99 349.84,-110.48 376.27,-72.46 398.25,-48.35"/>
<polygon fill="green" stroke="green" stroke-width="0.72" points="400.83,-50.71 405.16,-41.04 395.75,-45.9 400.83,-50.71"/>
</g>
<!-- z_score_MA_10_current&#45;&gt;592 -->
<g id="edge67" class="edge">
<title>z_score_MA_10_current&#45;&gt;592</title>
<path fill="none" stroke="green" stroke-width="0.3" d="M1517.77,-192.26C1637.78,-186.14 1925.61,-168.35 2016.43,-134.99 2020.02,-133.68 2023.59,-131.91 2027.02,-129.94"/>
<polygon fill="green" stroke="green" stroke-width="0.3" points="2029.11,-132.75 2035.61,-124.38 2025.31,-126.87 2029.11,-132.75"/>
</g>
<!-- z_score_MA_5_current -->
<g id="node9" class="node">
<title>z_score_MA_5_current</title>
<polygon fill="lightgray" stroke="black" points="1528.93,-119.25 1427.93,-119.25 1427.93,-101.25 1528.93,-101.25 1528.93,-119.25"/>
<text text-anchor="middle" x="1478.43" y="-108.05" font-family="Times,serif" font-size="9.00">z_score_MA_5_current</text>
</g>
<!-- z_score_MA_5_current&#45;&gt;Sell -->
<g id="edge24" class="edge">
<title>z_score_MA_5_current&#45;&gt;Sell</title>
<path fill="none" stroke="green" stroke-width="0.22" stroke-dasharray="1,5" d="M1459.39,-101.22C1446.59,-96.1 1429.23,-89.65 1413.43,-85.5 1293.5,-53.96 1146.57,-35.78 1083.54,-28.92"/>
<polygon fill="green" stroke="green" stroke-width="0.22" points="1083.79,-25.43 1073.47,-27.84 1083.04,-32.39 1083.79,-25.43"/>
</g>
<!-- z_score_MA_5_current&#45;&gt;Hold -->
<g id="edge25" class="edge">
<title>z_score_MA_5_current&#45;&gt;Hold</title>
<path fill="none" stroke="green" stroke-width="0.23" d="M1496.54,-101.23C1508.09,-96.3 1523.47,-90.07 1537.43,-85.5 1607.3,-62.63 1691.23,-43.06 1737.19,-32.99"/>
<polygon fill="green" stroke="green" stroke-width="0.23" points="1738.18,-36.36 1747.21,-30.82 1736.7,-29.52 1738.18,-36.36"/>
</g>
<!-- z_score_MA_5_current&#45;&gt;Buy -->
<g id="edge26" class="edge">
<title>z_score_MA_5_current&#45;&gt;Buy</title>
<path fill="none" stroke="red" stroke-width="0.2" stroke-dasharray="1,5" d="M1450.81,-101.18C1431.31,-95.82 1404.49,-89.13 1380.43,-85.5 1195.78,-57.59 600.56,-32.8 454.18,-27.02"/>
<polygon fill="red" stroke="red" stroke-width="0.2" points="454.18,-23.51 444.05,-26.62 453.9,-30.51 454.18,-23.51"/>
</g>
<!-- z_score_lagged -->
<g id="node10" class="node">
<title>z_score_lagged</title>
<polygon fill="lightgray" stroke="black" points="1617.93,-119.25 1546.93,-119.25 1546.93,-101.25 1617.93,-101.25 1617.93,-119.25"/>
<text text-anchor="middle" x="1582.43" y="-108.05" font-family="Times,serif" font-size="9.00">z_score_lagged</text>
</g>
<!-- z_score_lagged&#45;&gt;Sell -->
<g id="edge27" class="edge">
<title>z_score_lagged&#45;&gt;Sell</title>
<path fill="none" stroke="red" stroke-width="0.37" d="M1569.97,-101.09C1561.23,-95.76 1549.06,-89.15 1537.43,-85.5 1372.37,-33.7 1162.55,-26.51 1084,-25.73"/>
<polygon fill="red" stroke="red" stroke-width="0.37" points="1083.83,-22.23 1073.8,-25.66 1083.78,-29.23 1083.83,-22.23"/>
</g>
<!-- z_score_lagged&#45;&gt;Hold -->
<g id="edge28" class="edge">
<title>z_score_lagged&#45;&gt;Hold</title>
<path fill="none" stroke="green" stroke-width="0.12" stroke-dasharray="1,5" d="M1596.85,-101.2C1605.59,-96.43 1617.04,-90.38 1627.43,-85.5 1665.17,-67.75 1709.65,-49.73 1739.08,-38.18"/>
<polygon fill="green" stroke="green" stroke-width="0.12" points="1740.41,-41.42 1748.45,-34.53 1737.86,-34.9 1740.41,-41.42"/>
</g>
<!-- z_score_lagged&#45;&gt;Buy -->
<g id="edge29" class="edge">
<title>z_score_lagged&#45;&gt;Buy</title>
<path fill="none" stroke="green" stroke-width="0.54" stroke-dasharray="1,5" d="M1570.43,-101.07C1561.69,-95.58 1549.35,-88.79 1537.43,-85.5 1483.88,-70.7 632.61,-34.55 454.1,-27.1"/>
<polygon fill="green" stroke="green" stroke-width="0.54" points="454.15,-23.6 444.02,-26.68 453.86,-30.6 454.15,-23.6"/>
</g>
<!-- z_score_differenced -->
<g id="node11" class="node">
<title>z_score_differenced</title>
<polygon fill="lightgray" stroke="black" points="1724.43,-119.25 1636.43,-119.25 1636.43,-101.25 1724.43,-101.25 1724.43,-119.25"/>
<text text-anchor="middle" x="1680.43" y="-108.05" font-family="Times,serif" font-size="9.00">z_score_differenced</text>
</g>
<!-- z_score_differenced&#45;&gt;Sell -->
<g id="edge30" class="edge">
<title>z_score_differenced&#45;&gt;Sell</title>
<path fill="none" stroke="red" stroke-width="0.26" d="M1665.29,-101.07C1654.72,-95.74 1640.09,-89.12 1626.43,-85.5 1424.68,-32.04 1171.2,-26.02 1083.76,-25.63"/>
<polygon fill="red" stroke="red" stroke-width="0.26" points="1083.71,-22.13 1073.7,-25.61 1083.7,-29.13 1083.71,-22.13"/>
</g>
<!-- z_score_differenced&#45;&gt;Hold -->
<g id="edge31" class="edge">
<title>z_score_differenced&#45;&gt;Hold</title>
<path fill="none" stroke="green" stroke-width="0.22" d="M1689.15,-101.24C1702.14,-89.33 1727.04,-66.48 1746.07,-49.02"/>
<polygon fill="green" stroke="green" stroke-width="0.22" points="1748.55,-51.49 1753.55,-42.15 1743.81,-46.34 1748.55,-51.49"/>
</g>
<!-- z_score_differenced&#45;&gt;Buy -->
<g id="edge32" class="edge">
<title>z_score_differenced&#45;&gt;Buy</title>
<path fill="none" stroke="red" stroke-width="0.26" d="M1665.81,-101.07C1655.23,-95.59 1640.38,-88.79 1626.43,-85.5 1567.78,-71.65 640.6,-34.41 454,-27.03"/>
<polygon fill="red" stroke="red" stroke-width="0.26" points="454.11,-23.53 443.98,-26.63 453.83,-30.53 454.11,-23.53"/>
</g>
<!-- z_score_MSTD_10 -->
<g id="node12" class="node">
<title>z_score_MSTD_10</title>
<polygon fill="lightgray" stroke="black" points="1212.93,-204.74 1125.93,-204.74 1125.93,-186.74 1212.93,-186.74 1212.93,-204.74"/>
<text text-anchor="middle" x="1169.43" y="-193.54" font-family="Times,serif" font-size="9.00">z_score_MSTD_10</text>
</g>
<!-- z_score_MSTD_10&#45;&gt;Sell -->
<g id="edge33" class="edge">
<title>z_score_MSTD_10&#45;&gt;Sell</title>
<path fill="none" stroke="green" stroke-width="0.37" d="M1163.33,-186.71C1154.73,-175.32 1138.6,-153.76 1125.43,-134.99 1105.62,-106.77 1083.75,-73.78 1069.16,-51.5"/>
<polygon fill="green" stroke="green" stroke-width="0.37" points="1071.97,-49.4 1063.57,-42.94 1066.11,-53.23 1071.97,-49.4"/>
</g>
<!-- z_score_MSTD_10&#45;&gt;Hold -->
<g id="edge34" class="edge">
<title>z_score_MSTD_10&#45;&gt;Hold</title>
<path fill="none" stroke="red" stroke-width="0.25" d="M1183.47,-186.57C1193.65,-181.1 1207.93,-174.3 1221.43,-170.99 1295.56,-152.82 1854.89,-190.36 1907.43,-134.99 1922.57,-119.04 1919.46,-103.92 1907.43,-85.5 1885.1,-51.3 1838.36,-36.55 1805.95,-30.27"/>
<polygon fill="red" stroke="red" stroke-width="0.25" points="1806.43,-26.8 1795.98,-28.52 1805.22,-33.7 1806.43,-26.8"/>
</g>
<!-- z_score_MSTD_10&#45;&gt;Buy -->
<g id="edge35" class="edge">
<title>z_score_MSTD_10&#45;&gt;Buy</title>
<path fill="none" stroke="green" stroke-width="0.37" d="M1155.11,-186.54C1144.73,-181.05 1130.17,-174.25 1116.43,-170.99 1027.79,-150 360.41,-200.8 297.43,-134.99 282.22,-119.1 285.73,-104.13 297.43,-85.5 317.44,-53.64 359.74,-38.37 389.34,-31.33"/>
<polygon fill="green" stroke="green" stroke-width="0.37" points="390.2,-34.73 399.22,-29.17 388.71,-27.89 390.2,-34.73"/>
</g>
<!-- 494 -->
<g id="node24" class="node">
<title>494</title>
<ellipse fill="white" stroke="black" cx="1052.43" cy="-110.25" rx="21.43" ry="21.43"/>
<text text-anchor="middle" x="1052.43" y="-108.05" font-family="Times,serif" font-size="9.00">494</text>
</g>
<!-- z_score_MSTD_10&#45;&gt;494 -->
<g id="edge65" class="edge">
<title>z_score_MSTD_10&#45;&gt;494</title>
<path fill="none" stroke="red" stroke-width="0.29" stroke-dasharray="1,5" d="M1158.21,-186.74C1139.79,-173.59 1102.7,-147.12 1077.7,-129.28"/>
<polygon fill="red" stroke="red" stroke-width="0.29" points="1079.59,-126.33 1069.42,-123.37 1075.53,-132.03 1079.59,-126.33"/>
</g>
<!-- bb_upper -->
<g id="node13" class="node">
<title>bb_upper</title>
<polygon fill="lightgray" stroke="black" points="1646.43,-352.92 1596.43,-352.92 1596.43,-334.92 1646.43,-334.92 1646.43,-352.92"/>
<text text-anchor="middle" x="1621.43" y="-341.72" font-family="Times,serif" font-size="9.00">bb_upper</text>
</g>
<!-- bb_upper&#45;&gt;Sell -->
<g id="edge36" class="edge">
<title>bb_upper&#45;&gt;Sell</title>
<path fill="none" stroke="red" stroke-width="0.23" d="M1646.63,-339.04C1761.34,-320.43 2222.59,-235.09 2081.43,-85.5 2063.86,-66.88 1255.45,-33.8 1084.12,-26.99"/>
<polygon fill="red" stroke="red" stroke-width="0.23" points="1084.12,-23.49 1073.99,-26.59 1083.84,-30.49 1084.12,-23.49"/>
</g>
<!-- bb_upper&#45;&gt;Hold -->
<g id="edge37" class="edge">
<title>bb_upper&#45;&gt;Hold</title>
<path fill="none" stroke="red" stroke-width="0.35" d="M1646.72,-343.06C1756.53,-343.43 2188.27,-342.1 2228.43,-298.92 2294.71,-227.66 2259.87,-140.28 2179.43,-85.5 2118.79,-44.2 1893.74,-30.73 1806.4,-27"/>
<polygon fill="red" stroke="red" stroke-width="0.35" points="1806.34,-23.5 1796.21,-26.59 1806.06,-30.49 1806.34,-23.5"/>
</g>
<!-- bb_upper&#45;&gt;Buy -->
<g id="edge38" class="edge">
<title>bb_upper&#45;&gt;Buy</title>
<path fill="none" stroke="green" stroke-width="0.3" stroke-dasharray="1,5" d="M1596.13,-342.31C1406.28,-337.57 208.21,-304.47 73.43,-220.49 18.3,-186.14 -25.01,-134.67 17.43,-85.5 65.45,-29.85 300.72,-25.15 388.41,-25.37"/>
<polygon fill="green" stroke="green" stroke-width="0.3" points="388.57,-28.87 398.59,-25.42 388.6,-21.87 388.57,-28.87"/>
</g>
<!-- bb_upper&#45;&gt;739 -->
<g id="edge70" class="edge">
<title>bb_upper&#45;&gt;739</title>
<path fill="none" stroke="green" stroke-width="0.3" d="M1596.23,-343.08C1503.67,-343.32 1173.95,-340.99 906.43,-298.92 679.83,-263.29 629.49,-224.46 406.43,-170.99 335.13,-153.91 315.45,-156.76 245.43,-134.99 235.33,-131.86 224.54,-127.74 214.98,-123.83"/>
<polygon fill="green" stroke="green" stroke-width="0.3" points="216.12,-120.51 205.54,-119.86 213.4,-126.96 216.12,-120.51"/>
</g>
<!-- 210 -->
<g id="node26" class="node">
<title>210</title>
<ellipse fill="white" stroke="black" cx="1621.43" cy="-277.71" rx="21.43" ry="21.43"/>
<text text-anchor="middle" x="1621.43" y="-275.51" font-family="Times,serif" font-size="9.00">210</text>
</g>
<!-- bb_upper&#45;&gt;210 -->
<g id="edge61" class="edge">
<title>bb_upper&#45;&gt;210</title>
<path fill="none" stroke="red" stroke-width="0.39" d="M1621.43,-334.79C1621.43,-328.24 1621.43,-318.61 1621.43,-309.17"/>
<polygon fill="red" stroke="red" stroke-width="0.39" points="1624.93,-309.16 1621.43,-299.16 1617.93,-309.16 1624.93,-309.16"/>
</g>
<!-- bb_lower -->
<g id="node14" class="node">
<title>bb_lower</title>
<polygon fill="lightgray" stroke="black" points="561.43,-119.25 511.43,-119.25 511.43,-101.25 561.43,-101.25 561.43,-119.25"/>
<text text-anchor="middle" x="536.43" y="-108.05" font-family="Times,serif" font-size="9.00">bb_lower</text>
</g>
<!-- bb_lower&#45;&gt;Sell -->
<g id="edge39" class="edge">
<title>bb_lower&#45;&gt;Sell</title>
<path fill="none" stroke="red" stroke-width="0.24" d="M545.53,-101.03C552,-95.68 561.15,-89.06 570.43,-85.5 653.53,-53.6 927.43,-33.67 1020.87,-27.67"/>
<polygon fill="red" stroke="red" stroke-width="0.24" points="1021.34,-31.15 1031.1,-27.02 1020.9,-24.16 1021.34,-31.15"/>
</g>
<!-- bb_lower&#45;&gt;Hold -->
<g id="edge40" class="edge">
<title>bb_lower&#45;&gt;Hold</title>
<path fill="none" stroke="green" stroke-width="0.15" d="M545.17,-101.05C551.62,-95.56 560.89,-88.76 570.43,-85.5 627.01,-66.14 1544.72,-33.56 1736.48,-26.94"/>
<polygon fill="green" stroke="green" stroke-width="0.15" points="1736.69,-30.44 1746.56,-26.6 1736.45,-23.44 1736.69,-30.44"/>
</g>
<!-- bb_lower&#45;&gt;Buy -->
<g id="edge41" class="edge">
<title>bb_lower&#45;&gt;Buy</title>
<path fill="none" stroke="green" stroke-width="0.51" d="M525.4,-101.24C507.6,-88.31 472.05,-62.5 447.51,-44.68"/>
<polygon fill="green" stroke="green" stroke-width="0.51" points="449.49,-41.79 439.34,-38.75 445.37,-47.46 449.49,-41.79"/>
</g>
<!-- bb_signal -->
<g id="node15" class="node">
<title>bb_signal</title>
<polygon fill="lightgray" stroke="black" points="630.93,-119.25 579.93,-119.25 579.93,-101.25 630.93,-101.25 630.93,-119.25"/>
<text text-anchor="middle" x="605.43" y="-108.05" font-family="Times,serif" font-size="9.00">bb_signal</text>
</g>
<!-- bb_signal&#45;&gt;Sell -->
<g id="edge42" class="edge">
<title>bb_signal&#45;&gt;Sell</title>
<path fill="none" stroke="green" stroke-width="0.2" d="M614.86,-101.1C621.55,-95.78 630.98,-89.16 640.43,-85.5 775.02,-33.28 950.41,-26.17 1020.99,-25.57"/>
<polygon fill="green" stroke="green" stroke-width="0.2" points="1021.03,-29.07 1031.01,-25.53 1020.99,-22.07 1021.03,-29.07"/>
</g>
<!-- bb_signal&#45;&gt;Hold -->
<g id="edge43" class="edge">
<title>bb_signal&#45;&gt;Hold</title>
<path fill="none" stroke="red" stroke-width="0.14" d="M614.47,-101.06C621.13,-95.57 630.69,-88.78 640.43,-85.5 693.62,-67.61 1551.63,-34.1 1736.5,-27.07"/>
<polygon fill="red" stroke="red" stroke-width="0.14" points="1736.88,-30.55 1746.74,-26.68 1736.61,-23.56 1736.88,-30.55"/>
</g>
<!-- bb_signal&#45;&gt;Buy -->
<g id="edge44" class="edge">
<title>bb_signal&#45;&gt;Buy</title>
<path fill="none" stroke="red" stroke-width="0.45" d="M594.77,-101.13C588.03,-96.22 578.99,-90.05 570.43,-85.5 531.3,-64.69 483.29,-46.68 452.53,-36.02"/>
<polygon fill="red" stroke="red" stroke-width="0.45" points="453.39,-32.61 442.8,-32.69 451.13,-39.24 453.39,-32.61"/>
</g>
<!-- rsi -->
<g id="node16" class="node">
<title>rsi</title>
<polygon fill="lightgray" stroke="black" points="675.43,-119.25 649.43,-119.25 649.43,-101.25 675.43,-101.25 675.43,-119.25"/>
<text text-anchor="middle" x="662.43" y="-108.05" font-family="Times,serif" font-size="9.00">rsi</text>
</g>
<!-- rsi&#45;&gt;Sell -->
<g id="edge45" class="edge">
<title>rsi&#45;&gt;Sell</title>
<path fill="none" stroke="green" stroke-width="0.22" d="M669.61,-100.88C674.62,-95.61 681.76,-89.13 689.43,-85.5 802.89,-31.77 956.12,-25.32 1021.16,-25.23"/>
<polygon fill="green" stroke="green" stroke-width="0.22" points="1021.16,-28.73 1031.18,-25.26 1021.19,-21.73 1021.16,-28.73"/>
</g>
<!-- rsi&#45;&gt;Hold -->
<g id="edge46" class="edge">
<title>rsi&#45;&gt;Hold</title>
<path fill="none" stroke="red" stroke-width="0.51" d="M675.86,-102.49C687.77,-96.85 705.8,-89.16 722.43,-85.5 823.14,-63.3 1564.55,-33.69 1736.08,-27.09"/>
<polygon fill="red" stroke="red" stroke-width="0.51" points="1736.46,-30.58 1746.31,-26.7 1736.19,-23.58 1736.46,-30.58"/>
</g>
<!-- rsi&#45;&gt;Buy -->
<g id="edge47" class="edge">
<title>rsi&#45;&gt;Buy</title>
<path fill="none" stroke="green" stroke-width="0.28" d="M656.43,-101.1C652.22,-95.93 646.15,-89.47 639.43,-85.5 579.72,-50.15 498.49,-35.13 453.95,-29.22"/>
<polygon fill="green" stroke="green" stroke-width="0.28" points="454.34,-25.74 443.98,-27.96 453.47,-32.68 454.34,-25.74"/>
</g>
<!-- macd -->
<g id="node17" class="node">
<title>macd</title>
<polygon fill="lightgray" stroke="black" points="397.93,-204.74 362.93,-204.74 362.93,-186.74 397.93,-186.74 397.93,-204.74"/>
<text text-anchor="middle" x="380.43" y="-193.54" font-family="Times,serif" font-size="9.00">macd</text>
</g>
<!-- macd&#45;&gt;Sell -->
<g id="edge48" class="edge">
<title>macd&#45;&gt;Sell</title>
<path fill="none" stroke="green" stroke-width="0.25" d="M398.1,-195.44C447.41,-196.56 589.12,-194.1 684.43,-134.99 708,-120.38 698.75,-99.94 722.43,-85.5 772.55,-54.94 948.46,-35.45 1020.9,-28.55"/>
<polygon fill="green" stroke="green" stroke-width="0.25" points="1021.57,-32 1031.2,-27.59 1020.92,-25.03 1021.57,-32"/>
</g>
<!-- macd&#45;&gt;Hold -->
<g id="edge49" class="edge">
<title>macd&#45;&gt;Hold</title>
<path fill="none" stroke="red" stroke-width="0.49" stroke-dasharray="1,5" d="M398.22,-192.93C442.71,-188.47 562.37,-176.89 662.43,-170.99 721.86,-167.5 1685.49,-170.3 1733.43,-134.99 1756.77,-117.8 1765.87,-85.25 1769.37,-60.14"/>
<polygon fill="red" stroke="red" stroke-width="0.49" points="1772.88,-60.23 1770.55,-49.9 1765.93,-59.43 1772.88,-60.23"/>
</g>
<!-- macd&#45;&gt;Buy -->
<g id="edge50" class="edge">
<title>macd&#45;&gt;Buy</title>
<path fill="none" stroke="green" stroke-width="0.5" stroke-dasharray="1,5" d="M362.68,-194.87C282.59,-194.89 -37.43,-188.63 50.43,-85.5 93.85,-34.53 306.13,-26.88 388.59,-25.85"/>
<polygon fill="green" stroke="green" stroke-width="0.5" points="388.7,-29.35 398.66,-25.75 388.63,-22.35 388.7,-29.35"/>
</g>
<!-- 5341 -->
<g id="node29" class="node">
<title>5341</title>
<ellipse fill="white" stroke="black" cx="84.43" cy="-110.25" rx="25" ry="25"/>
<text text-anchor="middle" x="84.43" y="-108.05" font-family="Times,serif" font-size="9.00">5341</text>
</g>
<!-- macd&#45;&gt;5341 -->
<g id="edge77" class="edge">
<title>macd&#45;&gt;5341</title>
<path fill="none" stroke="green" stroke-width="0.11" d="M362.7,-192.6C320.13,-187.04 209.31,-170.06 123.43,-134.99 120,-133.59 116.52,-131.91 113.13,-130.1"/>
<polygon fill="green" stroke="green" stroke-width="0.11" points="114.84,-127.05 104.43,-125.1 111.35,-133.12 114.84,-127.05"/>
</g>
<!-- macd_signal -->
<g id="node18" class="node">
<title>macd_signal</title>
<polygon fill="lightgray" stroke="black" points="1291.93,-204.74 1230.93,-204.74 1230.93,-186.74 1291.93,-186.74 1291.93,-204.74"/>
<text text-anchor="middle" x="1261.43" y="-193.54" font-family="Times,serif" font-size="9.00">macd_signal</text>
</g>
<!-- macd_signal&#45;&gt;Sell -->
<g id="edge51" class="edge">
<title>macd_signal&#45;&gt;Sell</title>
<path fill="none" stroke="green" stroke-width="0.91" d="M1247.76,-186.55C1240.05,-181.95 1230.22,-176.12 1221.43,-170.99 1193.56,-154.76 1182.3,-156.67 1158.43,-134.99 1138.48,-116.88 1141.66,-105.33 1123.43,-85.5 1109.39,-70.23 1091.52,-55.21 1077.22,-44.05"/>
<polygon fill="green" stroke="green" stroke-width="0.91" points="1079.33,-41.26 1069.27,-37.95 1075.07,-46.81 1079.33,-41.26"/>
</g>
<!-- macd_signal&#45;&gt;Hold -->
<g id="edge52" class="edge">
<title>macd_signal&#45;&gt;Hold</title>
<path fill="none" stroke="green" stroke-width="0.4" d="M1292.11,-188.67C1320.59,-183.24 1364.21,-175.48 1402.43,-170.99 1461.93,-164.01 1899.5,-178.75 1940.43,-134.99 1955.46,-118.93 1953.13,-103.46 1940.43,-85.5 1910.08,-42.58 1846.21,-30.29 1806.26,-26.89"/>
<polygon fill="green" stroke="green" stroke-width="0.4" points="1806.39,-23.39 1796.17,-26.17 1805.9,-30.37 1806.39,-23.39"/>
</g>
<!-- macd_signal&#45;&gt;Buy -->
<g id="edge53" class="edge">
<title>macd_signal&#45;&gt;Buy</title>
<path fill="none" stroke="red" stroke-width="0.1" d="M1250.91,-186.51C1243.22,-181.01 1232.27,-174.21 1221.43,-170.99 1126.97,-142.99 403.67,-206.06 335.43,-134.99 320.19,-119.13 325.24,-104.99 335.43,-85.5 347.09,-63.21 371.26,-47.56 391.02,-37.88"/>
<polygon fill="red" stroke="red" stroke-width="0.1" points="392.68,-40.97 400.29,-33.61 389.75,-34.62 392.68,-40.97"/>
</g>
<!-- 307 -->
<g id="node27" class="node">
<title>307</title>
<ellipse fill="white" stroke="black" cx="1188.43" cy="-110.25" rx="21.43" ry="21.43"/>
<text text-anchor="middle" x="1188.43" y="-108.05" font-family="Times,serif" font-size="9.00">307</text>
</g>
<!-- macd_signal&#45;&gt;307 -->
<g id="edge63" class="edge">
<title>macd_signal&#45;&gt;307</title>
<path fill="none" stroke="red" stroke-width="0.14" d="M1254.43,-186.74C1243.97,-174.77 1223.86,-151.77 1208.57,-134.28"/>
<polygon fill="red" stroke="red" stroke-width="0.14" points="1211.15,-131.92 1201.94,-126.7 1205.88,-136.53 1211.15,-131.92"/>
</g>
<!-- macd_signal_difference -->
<g id="node19" class="node">
<title>macd_signal_difference</title>
<polygon fill="lightgray" stroke="black" points="1107.93,-204.74 1006.93,-204.74 1006.93,-186.74 1107.93,-186.74 1107.93,-204.74"/>
<text text-anchor="middle" x="1057.43" y="-193.54" font-family="Times,serif" font-size="9.00">macd_signal_difference</text>
</g>
<!-- macd_signal_difference&#45;&gt;Sell -->
<g id="edge54" class="edge">
<title>macd_signal_difference&#45;&gt;Sell</title>
<path fill="none" stroke="green" stroke-width="0.59" d="M1050.64,-186.49C1042.11,-175.53 1027.91,-155.18 1022.43,-134.99 1016.67,-113.76 1017.36,-106.9 1022.43,-85.5 1025.2,-73.82 1030.62,-61.84 1036.1,-51.69"/>
<polygon fill="green" stroke="green" stroke-width="0.59" points="1039.17,-53.38 1041.08,-42.96 1033.09,-49.91 1039.17,-53.38"/>
</g>
<!-- macd_signal_difference&#45;&gt;Buy -->
<g id="edge55" class="edge">
<title>macd_signal_difference&#45;&gt;Buy</title>
<path fill="none" stroke="red" stroke-width="0.32" d="M1041.37,-186.57C1029.76,-181.1 1013.53,-174.3 998.43,-170.99 918.13,-153.4 316.13,-194.52 259.43,-134.99 244.26,-119.07 246.85,-103.54 259.43,-85.5 288.49,-43.8 350.13,-31.13 388.43,-27.32"/>
<polygon fill="red" stroke="red" stroke-width="0.32" points="388.9,-30.8 398.57,-26.47 388.31,-23.82 388.9,-30.8"/>
</g>
<!-- 127 -->
<g id="node30" class="node">
<title>127</title>
<ellipse fill="white" stroke="black" cx="1877.43" cy="-110.25" rx="21.43" ry="21.43"/>
<text text-anchor="middle" x="1877.43" y="-108.05" font-family="Times,serif" font-size="9.00">127</text>
</g>
<!-- macd_signal_difference&#45;&gt;127 -->
<g id="edge59" class="edge">
<title>macd_signal_difference&#45;&gt;127</title>
<path fill="none" stroke="red" stroke-width="0.3" d="M1073.49,-186.58C1085.1,-181.1 1101.33,-174.31 1116.43,-170.99 1274.2,-136.36 1689.24,-186.25 1842.43,-134.99 1846.05,-133.78 1849.65,-132.08 1853.09,-130.14"/>
<polygon fill="red" stroke="red" stroke-width="0.3" points="1855.17,-132.96 1861.69,-124.61 1851.38,-127.07 1855.17,-132.96"/>
</g>
<!-- Sell&#45;&gt;Sell -->
<g id="edge56" class="edge">
<title>Sell&#45;&gt;Sell</title>
<path fill="none" stroke="red" stroke-width="0.21" d="M1068.54,-38.8C1080.11,-43.38 1091.64,-38.69 1091.64,-24.75 1091.64,-14.94 1085.94,-9.72 1078.54,-9.07"/>
<polygon fill="red" stroke="red" stroke-width="0.21" points="1077.85,-5.63 1068.54,-10.69 1078.97,-12.54 1077.85,-5.63"/>
</g>
<!-- Hold&#45;&gt;Hold -->
<g id="edge57" class="edge">
<title>Hold&#45;&gt;Hold</title>
<path fill="none" stroke="red" stroke-width="0.31" d="M1791.66,-39.63C1803.32,-42.67 1814.18,-37.71 1814.18,-24.75 1814.18,-15.84 1809.05,-10.71 1802.05,-9.36"/>
<polygon fill="red" stroke="red" stroke-width="0.31" points="1801.48,-5.88 1791.66,-9.86 1801.82,-12.87 1801.48,-5.88"/>
</g>
<!-- Buy&#45;&gt;Buy -->
<g id="edge58" class="edge">
<title>Buy&#45;&gt;Buy</title>
<path fill="none" stroke="red" stroke-width="0.27" d="M438.97,-39.11C450.67,-43.15 462.06,-38.37 462.06,-24.75 462.06,-15.17 456.43,-9.96 449.02,-9.12"/>
<polygon fill="red" stroke="red" stroke-width="0.27" points="448.45,-5.66 438.97,-10.39 449.33,-12.61 448.45,-5.66"/>
</g>
<!-- 739&#45;&gt;Buy -->
<g id="edge71" class="edge">
<title>739&#45;&gt;Buy</title>
<path fill="none" stroke="green" stroke-width="0.38" d="M202.89,-96.55C208.55,-92.62 215.06,-88.52 221.43,-85.5 277.9,-58.69 349.06,-40.88 389.49,-32.12"/>
<polygon fill="green" stroke="green" stroke-width="0.38" points="390.26,-35.53 399.32,-30.03 388.81,-28.68 390.26,-35.53"/>
</g>
<!-- 494&#45;&gt;Hold -->
<g id="edge66" class="edge">
<title>494&#45;&gt;Hold</title>
<path fill="none" stroke="red" stroke-width="0.59" d="M1073,-103.85C1094.25,-98.45 1128.45,-90.3 1158.43,-85.5 1377.01,-50.5 1642.94,-33.03 1736.7,-27.63"/>
<polygon fill="red" stroke="red" stroke-width="0.59" points="1736.98,-31.12 1746.76,-27.06 1736.58,-24.13 1736.98,-31.12"/>
</g>
<!-- 494&#45;&gt;Buy -->
<g id="edge69" class="edge">
<title>494&#45;&gt;Buy</title>
<path fill="none" stroke="green" stroke-width="1.08" stroke-dasharray="1,5" d="M1031.84,-103.95C1010.58,-98.63 976.37,-90.54 946.43,-85.5 761.41,-54.33 536.91,-34.83 454.12,-28.24"/>
<polygon fill="green" stroke="green" stroke-width="1.08" points="454.31,-24.75 444.06,-27.45 453.76,-31.73 454.31,-24.75"/>
</g>
<!-- 592&#45;&gt;Hold -->
<g id="edge68" class="edge">
<title>592&#45;&gt;Hold</title>
<path fill="none" stroke="red" stroke-width="0.28" d="M2035.05,-96.36C2029.41,-92.41 2022.87,-88.36 2016.43,-85.5 1945.22,-53.9 1854.63,-37.36 1806.01,-30.21"/>
<polygon fill="red" stroke="red" stroke-width="0.28" points="1806.4,-26.73 1796.01,-28.79 1805.42,-33.66 1806.4,-26.73"/>
</g>
<!-- 210&#45;&gt;Hold -->
<g id="edge62" class="edge">
<title>210&#45;&gt;Hold</title>
<path fill="none" stroke="green" stroke-width="0.11" d="M1642.62,-276.1C1737.2,-273.18 2117.71,-259.08 2152.43,-220.49 2192.56,-175.89 2191.43,-131.09 2152.43,-85.5 2107.99,-33.54 1891.97,-26.46 1806.42,-25.72"/>
<polygon fill="green" stroke="green" stroke-width="0.11" points="1806.44,-22.22 1796.41,-25.65 1806.39,-29.22 1806.44,-22.22"/>
</g>
<!-- 210&#45;&gt;1791 -->
<g id="edge75" class="edge">
<title>210&#45;&gt;1791</title>
<path fill="none" stroke="red" stroke-width="0.13" d="M1599.97,-276.28C1503.72,-274.17 1111.58,-263.05 997.43,-220.49 995.54,-219.79 993.67,-218.95 991.83,-218.01"/>
<polygon fill="red" stroke="red" stroke-width="0.13" points="993.35,-214.84 982.98,-212.68 989.73,-220.84 993.35,-214.84"/>
</g>
<!-- 307&#45;&gt;Sell -->
<g id="edge64" class="edge">
<title>307&#45;&gt;Sell</title>
<path fill="none" stroke="green" stroke-width="0.26" d="M1171.48,-97.44C1165.79,-93.56 1159.38,-89.27 1153.43,-85.5 1128.66,-69.79 1099.81,-52.86 1079.3,-41.04"/>
<polygon fill="green" stroke="green" stroke-width="0.26" points="1080.93,-37.94 1070.51,-35.99 1077.44,-44.01 1080.93,-37.94"/>
</g>
<!-- 1791&#45;&gt;Hold -->
<g id="edge74" class="edge">
<title>1791&#45;&gt;Hold</title>
<path fill="none" stroke="green" stroke-width="0.49" d="M982.56,-178.88C987.13,-175.71 992.23,-172.8 997.43,-170.99 1082.22,-141.55 1742.39,-199.86 1804.43,-134.99 1825.65,-112.81 1809.09,-77.45 1792.71,-53"/>
<polygon fill="green" stroke="green" stroke-width="0.49" points="1795.37,-50.69 1786.75,-44.53 1789.64,-54.72 1795.37,-50.69"/>
</g>
<!-- 1791&#45;&gt;739 -->
<g id="edge79" class="edge">
<title>1791&#45;&gt;739</title>
<path fill="none" stroke="green" stroke-width="0.11" d="M939.93,-191.55C901.23,-186.6 823.53,-177 757.43,-170.99 638.54,-160.19 334.3,-173.86 221.43,-134.99 217.81,-133.75 214.22,-132.03 210.79,-130.08"/>
<polygon fill="green" stroke="green" stroke-width="0.11" points="212.5,-127.01 202.19,-124.54 208.71,-132.9 212.5,-127.01"/>
</g>
<!-- 5341&#45;&gt;Buy -->
<g id="edge78" class="edge">
<title>5341&#45;&gt;Buy</title>
<path fill="none" stroke="green" stroke-width="0.39" d="M104.38,-95.27C110.29,-91.64 116.93,-88.04 123.43,-85.5 215.54,-49.51 332.51,-34.19 388.56,-28.57"/>
<polygon fill="green" stroke="green" stroke-width="0.39" points="389,-32.04 398.62,-27.6 388.33,-25.07 389,-32.04"/>
</g>
<!-- 127&#45;&gt;Hold -->
<g id="edge60" class="edge">
<title>127&#45;&gt;Hold</title>
<path fill="none" stroke="green" stroke-width="0.54" d="M1860.87,-96.2C1844.16,-83.04 1818.08,-62.49 1798.38,-46.98"/>
<polygon fill="green" stroke="green" stroke-width="0.54" points="1800.4,-44.11 1790.38,-40.68 1796.07,-49.61 1800.4,-44.11"/>
</g>
</g>
</svg>
